<svg width="29" height="29" viewBox="0 0 29 29" fill="none" xmlns="http://www.w3.org/2000/svg">
<path fill-rule="evenodd" clip-rule="evenodd" d="M28.25 14.5C28.25 22.2319 22.0938 28.5 14.5 28.5C6.90608 28.5 0.75 22.2319 0.75 14.5C0.75 6.76801 6.90608 0.5 14.5 0.5C22.0938 0.5 28.25 6.76801 28.25 14.5ZM20.0417 10.2575C20.4444 10.6676 20.4444 11.3324 20.0417 11.7424L13.1667 18.7424C12.7639 19.1525 12.1111 19.1525 11.7083 18.7424L8.9583 15.9424C8.55557 15.5324 8.55557 14.8676 8.9583 14.4576C9.36102 14.0475 10.014 14.0475 10.4167 14.4576L12.4375 16.515L15.5104 13.3863L18.5833 10.2575C18.9861 9.84749 19.6389 9.84749 20.0417 10.2575Z" fill="#1C7C54"/>
</svg>
