<svg width="25" height="25" viewBox="0 0 25 25" fill="none" xmlns="http://www.w3.org/2000/svg">
<g clip-path="url(#clip0_183_4069)">
<path fill-rule="evenodd" clip-rule="evenodd" d="M12.5 0C19.4036 0 25 5.59644 25 12.5C25 19.4036 19.4036 25 12.5 25C5.59644 25 0 19.4036 0 12.5C0 5.59644 5.59644 0 12.5 0ZM20.4346 17.3458V8.05557L15.7892 12.7006L20.4346 17.3458ZM5.55781 17.535H19.4425L15.1989 13.2915L13.5816 14.9085C13.5032 14.9868 13.3969 15.0307 13.2862 15.0306H11.7139C11.6591 15.0307 11.6047 15.0199 11.554 14.999C11.5033 14.978 11.4573 14.9473 11.4185 14.9085L9.80117 13.2915L5.55762 17.535H5.55781ZM4.56543 8.05527V17.346L9.21079 12.7006L4.56543 8.05527ZM19.844 7.46499H5.15625L11.8869 14.1957H13.1133L19.844 7.46499Z" fill="#1C7C54"/>
</g>
<defs>
<clipPath id="clip0_183_4069">
<rect width="25" height="25" fill="white"/>
</clipPath>
</defs>
</svg>
