<svg width="30" height="30" viewBox="0 0 30 30" fill="none" xmlns="http://www.w3.org/2000/svg">
<circle cx="14.5" cy="15.5" r="12.5" fill="#1C7C54"/>
<path d="M24.4058 6.09419C21.9268 3.61527 18.6308 2.25 15.125 2.25C11.6192 2.25 8.32322 3.61527 5.84419 6.09419C3.36527 8.57322 2 11.8692 2 15.375C2 18.8808 3.36527 22.1768 5.84419 24.6558C8.32322 27.1347 11.6192 28.5 15.125 28.5C18.6308 28.5 21.9268 27.1347 24.4058 24.6558C26.8847 22.1768 28.25 18.8808 28.25 15.375C28.25 11.8692 26.8847 8.57322 24.4058 6.09419ZM15.125 26.8763C8.78316 26.8763 3.62371 21.7168 3.62371 15.375C3.62371 9.03316 8.78316 3.87371 15.125 3.87371C21.4668 3.87371 26.6263 9.03316 26.6263 15.375C26.6263 21.7168 21.4668 26.8763 15.125 26.8763Z" fill="#1C7C54"/>
<path fill-rule="evenodd" clip-rule="evenodd" d="M8.64415 12.4097C8.98738 12.0665 9.54387 12.0665 9.88711 12.4097L15.125 17.6477L20.3629 12.4097C20.7061 12.0665 21.2626 12.0665 21.6059 12.4097C21.9491 12.753 21.9491 13.3095 21.6059 13.6527L15.7465 19.5121C15.4033 19.8553 14.8467 19.8553 14.5035 19.5121L8.64415 13.6527C8.30091 13.3095 8.30091 12.753 8.64415 12.4097Z" fill="white"/>
</svg>
