<svg width="72" height="54" viewBox="0 0 72 54" fill="none" xmlns="http://www.w3.org/2000/svg">
<path d="M1 9.52874C9.73525 1.28862 22.9469 -2.15082 33.6023 4.5275C40.7342 8.99756 45.6733 18.1476 41.5118 26.3245C40.5999 28.1161 38.6845 30.1604 36.4679 29.8809C35.8083 29.7655 35.1943 29.467 34.6961 29.0194C34.1979 28.5718 33.8356 27.9932 33.6505 27.3496C33.4317 26.3496 33.4681 25.3105 33.7564 24.3282C34.0448 23.346 34.5757 22.4521 35.3003 21.7289C38.2059 18.3748 42.7434 17.3606 46.9956 17.8859C52.4075 18.5544 57.0731 23.2654 59.7161 27.7728C61.8213 31.4469 63.0721 35.548 63.3755 39.7716C63.73 44.1961 62.6313 48.6215 61.6277 52.8982" stroke="#868686" stroke-width="1.85894" stroke-linecap="round" stroke-linejoin="round"/>
<path d="M53.7246 43.145L61.5202 53.0001L70.755 44.7999" stroke="#868686" stroke-width="1.85894" stroke-linecap="round" stroke-linejoin="round"/>
</svg>
