<svg width="46" height="46" viewBox="0 0 46 46" fill="none" xmlns="http://www.w3.org/2000/svg">
<g clip-path="url(#clip0_166_12823)">
<path d="M22.8417 16.2131C20.7886 16.2131 19.1182 17.8833 19.1182 19.9364C19.1182 21.9893 20.7885 23.6594 22.8417 23.6594C24.8945 23.6594 26.5648 21.9893 26.5648 19.9364C26.5648 17.8832 24.8946 16.2131 22.8417 16.2131ZM22.8417 22.3117C21.5316 22.3117 20.4658 21.2461 20.4658 19.9364C20.4658 18.6264 21.5316 17.5608 22.8417 17.5608C24.1516 17.5608 25.2171 18.6265 25.2171 19.9364C25.2171 21.2461 24.1515 22.3117 22.8417 22.3117Z" fill="white"/>
<path d="M40.4272 43.7146C35.8473 40.1937 32.2335 33.4988 29.9662 24.3455C34.2268 18.2067 34.0592 18.517 34.0665 17.8568C34.08 16.6112 32.8574 15.6118 31.5029 16.1246C31.0206 16.3036 30.9971 16.3125 28.8897 19.373C28.4129 16.7149 28.1206 14.3557 27.9459 12.6072H32.2701C32.9152 12.6072 33.4917 12.2221 33.7385 11.626C33.9853 11.0301 33.8501 10.3505 33.3942 9.89424L29.3968 5.89709C29.1336 5.63402 28.7069 5.63402 28.4438 5.89709C28.1806 6.16033 28.1806 6.58691 28.4438 6.85006C32.7706 11.1767 32.5784 10.9049 32.4933 11.1105C32.4558 11.2012 32.3682 11.2597 32.2701 11.2597H27.2046C26.8093 11.2597 26.4977 11.5993 26.5335 11.9945C26.7221 14.0702 27.096 17.2864 27.8117 20.9388C27.1664 21.8754 26.6218 22.6647 25.8633 23.7614C25.5635 24.1613 25.017 24.457 24.3326 24.457C21.076 24.457 21.1756 24.4732 20.8729 24.4073C20.2542 24.2726 19.9246 23.9016 19.8194 23.7615L17.8706 20.9444C18.5868 17.2911 18.9611 14.0723 19.1499 11.9946C19.1857 11.6003 18.8748 11.2598 18.4788 11.2598C13.049 11.2598 13.2772 11.3212 13.1902 11.1107C13.1004 10.8941 12.5912 11.4988 22.6708 1.4189C22.761 1.3287 22.9227 1.32879 23.0126 1.41881L28.5689 6.97514C28.832 7.23812 29.2587 7.2383 29.5218 6.97514C29.7849 6.7119 29.7849 6.28532 29.5218 6.02217L23.9652 0.46566C23.3439 -0.155251 22.3394 -0.155341 21.7179 0.46575L12.2895 9.89433C11.2906 10.8933 11.9991 12.6073 13.4132 12.6073H17.7376C17.5624 14.3588 17.2695 16.7226 16.7916 19.3847L14.9911 16.7819C14.4111 15.9429 13.2569 15.7293 12.4147 16.3124C11.5729 16.8946 11.3628 18.0471 11.9453 18.8891L15.7173 24.3415C12.0588 39.128 6.28458 42.6468 5.53034 43.5107C4.44754 44.6393 4.71492 45.9875 6.55429 45.9875H32.2901C32.6622 45.9875 32.9639 45.6859 32.9639 45.3137C32.9639 44.9415 32.6622 44.6399 32.2901 44.6399C26.097 44.6399 6.48197 44.6432 6.35151 44.632C6.86587 43.8929 12.8696 40.3509 16.7272 25.8317L17.8511 27.4559C17.9418 27.6124 18.7413 29.0354 18.7413 30.6151C18.7413 45.3042 18.7303 44.4343 18.7643 44.6398H15.4345C15.0623 44.6398 14.7606 44.9414 14.7606 45.3136C14.7606 45.6858 15.0623 45.9874 15.4345 45.9874C20.4439 45.9874 20.0936 45.9933 20.1916 45.9736C20.418 46.009 25.2687 46.0084 25.4904 45.9737C25.5924 45.9943 24.7497 45.9874 39.5414 45.9874C39.8462 45.9874 40.7741 45.9874 41.0483 45.2617C41.2718 44.6701 40.8181 44.0148 40.4272 43.7146ZM25.5823 30.5949V44.2943C25.5823 44.4897 25.4235 44.6486 25.2282 44.6486H23.5157V35.7031C23.5157 35.3309 23.214 35.0292 22.8418 35.0292C22.4697 35.0292 22.168 35.3309 22.168 35.7031V44.6486H20.4542C20.259 44.6486 20.1002 44.4896 20.1002 44.2943V30.5949C20.1002 28.9182 19.3272 27.1898 18.9874 26.7C12.5958 17.461 12.9185 18.0386 12.972 17.7449C13.0524 17.3033 13.6284 17.1807 13.8827 17.5483C13.8912 17.5606 18.7205 24.5417 18.7294 24.5537C18.9457 24.8471 19.774 25.8043 21.35 25.8043H24.3325C25.5281 25.8043 26.505 25.2057 26.965 24.5372C30.4978 19.4319 31.6918 17.6363 31.9522 17.395C32.3464 17.2481 32.7101 17.398 32.7194 17.9227C32.5539 18.3 31.1056 20.325 26.6951 26.7C26.5848 26.8589 25.5823 28.6036 25.5823 30.5949ZM26.9172 44.6399C26.9507 44.438 26.9402 45.3067 26.9402 30.6153C26.9402 29.033 27.7425 27.6076 27.8303 27.4564C28.2308 26.8773 28.6051 26.3369 28.955 25.8323C30.7567 32.6124 33.8973 40.2777 39.4223 44.6399H26.9172Z" fill="white"/>
</g>
<defs>
<clipPath id="clip0_166_12823">
<rect width="46" height="46" fill="white"/>
</clipPath>
</defs>
</svg>
