<svg width="46" height="46" viewBox="0 0 46 46" fill="none" xmlns="http://www.w3.org/2000/svg">
<path fill-rule="evenodd" clip-rule="evenodd" d="M12.5173 39.4395L13.2084 40.6607C13.2088 40.6613 13.2091 40.6619 13.2094 40.6625C13.7272 41.5833 13.3989 42.7584 12.4833 43.2755L10.2027 44.5682C10.2019 44.5686 10.2012 44.569 10.2005 44.5694C9.27959 45.0871 8.1046 44.7589 7.58715 43.8429L0.880528 31.9923C0.358113 31.0707 0.686336 29.8947 1.60309 29.3769L3.8864 28.0843L3.88694 28.0839C4.80334 27.5664 5.97877 27.8917 6.50056 28.8081L6.50155 28.8097L7.07168 29.8171L13.1198 26.3154C14.8932 25.2898 16.7041 24.6147 18.6519 25.2471C20.5746 25.8707 23.7138 27.214 26.9173 27.7928C26.9491 27.7986 26.9805 27.8065 27.0112 27.8164C28.5815 28.3249 29.5383 29.9114 29.1096 31.5059C29.0241 31.8239 28.9028 32.1125 28.7481 32.3685C29.1736 32.2694 29.5878 32.1051 29.9937 31.8686L38.1257 27.1324C41.0195 25.4466 42.9466 25.6138 44.0386 26.3464C44.9668 26.9692 45.395 28.0332 45.3673 29.0769C45.3393 30.1304 44.8402 31.1381 44.014 31.647L29.2578 40.7322C27.7266 41.6773 26.0493 41.8987 24.3117 41.4352L24.3109 41.4349L13.8956 38.6436L12.5173 39.4395ZM11.9517 41.3701L5.24629 29.5218L5.24566 29.5206C5.11532 29.2939 4.82426 29.212 4.59679 29.3404L2.31401 30.6327L2.31338 30.6331C2.08645 30.7613 2.00672 31.0527 2.13597 31.2807L2.13624 31.2811L8.84313 43.1321L8.8434 43.1326C8.97193 43.3601 9.26398 43.44 9.49263 43.3118L11.7717 42.02L11.7726 42.0196C12.0002 41.8909 12.08 41.5989 11.9517 41.3701ZM11.8065 38.1835L13.4328 37.2444C13.5985 37.1487 13.7955 37.1227 13.9804 37.1722L24.6838 40.0408C26.0241 40.3984 27.3188 40.233 28.4999 39.5041L28.5006 39.5037L43.2573 30.4182C43.6613 30.1692 43.8758 29.6712 43.9181 29.1589C43.983 28.372 43.6107 27.5053 42.6373 27.3014C41.7624 27.1181 40.5289 27.4026 38.8521 28.3794L30.7203 33.1155C29.4342 33.8649 28.0862 34.0716 26.6173 33.8378C26.6164 33.8376 26.6155 33.8375 26.6147 33.8373C26.6147 33.8373 25.6058 33.6732 25.6055 33.6731C25.5958 33.6715 25.586 33.6697 25.5764 33.6678C25.576 33.6677 25.5757 33.6677 25.5754 33.6676C23.7418 33.2912 22.0413 32.7371 20.1543 32.23C19.7698 32.1267 19.5414 31.7305 19.6447 31.3459C19.7481 30.9613 20.1442 30.733 20.5288 30.8363C22.3767 31.3329 24.0423 31.8775 25.8364 32.2479C26.7962 32.3557 27.4953 31.9529 27.7158 31.1315L27.7158 31.1312C27.94 30.2979 27.4197 29.4877 26.6085 29.2035C23.3511 28.6067 20.162 27.2539 18.2066 26.6199L18.2063 26.6197C16.6627 26.1185 15.2478 26.7519 13.8424 27.5646L7.78251 31.0732L11.8065 38.1835ZM4.31529 30.8111C4.83292 30.734 5.31358 31.0915 5.3906 31.6091C5.46456 32.1268 5.10721 32.6105 4.58957 32.6844C4.07194 32.7615 3.59128 32.401 3.51425 31.8833C3.44029 31.3657 3.79774 30.885 4.31529 30.8111ZM17.7927 13.9725C17.0933 13.3155 16.6458 12.5027 16.6458 11.4851V6.89882C16.6458 5.97016 17.4035 5.21242 18.3322 5.21242H24.4824V3.92001C24.4824 2.41707 25.715 1.18445 27.218 1.18445H33.2296C34.7348 1.18445 35.9652 2.41707 35.9652 3.92001V5.21242H42.1171C43.0432 5.21242 43.8018 5.9698 43.8018 6.89882V11.4851C43.8018 12.5025 43.3543 13.3152 42.6565 13.9721V22.1049C42.6565 23.5354 41.4854 24.7072 40.0525 24.7072H20.3951C18.9644 24.7072 17.7927 23.5356 17.7927 22.1049V13.9725ZM22.789 6.65556H18.3322C18.1982 6.65556 18.0889 6.76488 18.0889 6.89882V11.4851C18.0889 12.1662 18.4643 12.6725 18.9713 13.0874C18.972 13.088 18.9726 13.0884 18.9732 13.089C19.1326 13.2204 19.3041 13.3411 19.4856 13.4562C20.9562 14.3862 23.9828 14.916 27.3373 15.1119C27.7825 13.955 28.9044 13.1301 30.2237 13.1301C31.5444 13.1301 32.665 13.9543 33.11 15.1105C36.4705 14.913 39.4997 14.3818 40.9618 13.4563C41.1434 13.3411 41.3165 13.2204 41.4761 13.089L41.4772 13.088C41.9832 12.6729 42.3586 12.1665 42.3586 11.4851V6.89882C42.3586 6.76524 42.2503 6.65556 42.1171 6.65556H37.6586V9.06966C37.6586 10.1311 36.7907 11.0007 35.7293 11.0007H24.7199C23.6588 11.0007 22.789 10.1308 22.789 9.06966V6.65556ZM27.1493 16.5458C23.898 16.3439 20.9487 15.8025 19.2359 14.9647V22.1049C19.2359 22.7422 19.7578 23.2641 20.3951 23.2641H40.0525C40.691 23.2641 41.2133 22.7424 41.2133 22.1049V14.9638C39.5065 15.7982 36.5548 16.341 33.2984 16.5445C33.1362 18.0993 31.8216 19.3113 30.2237 19.3113C28.6265 19.3113 27.3121 18.1 27.1493 16.5458ZM36.2155 6.65556H24.2321V9.06966C24.2321 9.33772 24.4518 9.55753 24.7199 9.55753H35.7293C35.9971 9.55753 36.2155 9.33745 36.2155 9.06966V6.65556ZM34.522 5.21242V3.92001C34.522 3.20998 33.9407 2.62759 33.2296 2.62759H27.218C26.5079 2.62759 25.9255 3.20998 25.9255 3.92001V5.21242H26.2653V3.92001C26.2653 3.41238 26.7103 2.96735 27.218 2.96735H33.2296C33.7442 2.96735 34.1823 3.41238 34.1823 3.92001V5.21242H34.522ZM27.7085 5.21242H32.7391V4.41049H27.7085V5.21242ZM28.5755 16.2199C28.5755 17.1302 29.3134 17.8682 30.2237 17.8682C31.1342 17.8682 31.8721 17.1302 31.8721 16.2199C31.8721 15.3131 31.1375 14.5732 30.2237 14.5732C29.3112 14.5732 28.5755 15.3131 28.5755 16.2199Z" fill="white"/>
</svg>
