<svg width="39" height="39" viewBox="0 0 39 39" fill="none" xmlns="http://www.w3.org/2000/svg">
<path d="M19.5 12.1875C18.6563 12.1875 17.8316 11.9373 17.1301 11.4686C16.4287 10.9999 15.8819 10.3337 15.5591 9.55426C15.2362 8.77482 15.1517 7.91715 15.3163 7.08969C15.4809 6.26224 15.8872 5.50218 16.4838 4.90562C17.0803 4.30907 17.8404 3.9028 18.6678 3.73821C19.4953 3.57362 20.3529 3.6581 21.1324 3.98095C21.9118 4.30381 22.578 4.85054 23.0467 5.55202C23.5155 6.2535 23.7656 7.07822 23.7656 7.92188C23.7643 9.05279 23.3145 10.137 22.5148 10.9367C21.7152 11.7364 20.6309 12.1862 19.5 12.1875ZM19.5 4.875C18.8974 4.875 18.3083 5.0537 17.8072 5.38849C17.3062 5.72329 16.9157 6.19915 16.6851 6.75589C16.4544 7.31263 16.3941 7.92526 16.5117 8.51629C16.6292 9.10733 16.9194 9.65023 17.3455 10.0763C17.7716 10.5025 18.3146 10.7926 18.9056 10.9102C19.4966 11.0278 20.1092 10.9674 20.666 10.7368C21.2227 10.5062 21.6986 10.1157 22.0334 9.61463C22.3682 9.11357 22.5469 8.52449 22.5469 7.92188C22.5459 7.11409 22.2246 6.33967 21.6534 5.76848C21.0822 5.19729 20.3078 4.87597 19.5 4.875Z" fill="white"/>
<path d="M24.3746 18.8907H23.1558V15.8438C23.1567 15.6839 23.2204 15.5307 23.3332 15.4173L31.4714 7.22545C31.6093 7.08663 31.6867 6.8989 31.6867 6.70322C31.6867 6.50754 31.6093 6.3198 31.4714 6.18098C31.3417 6.05161 31.1681 5.97563 30.9851 5.96807C30.8021 5.96051 30.6229 6.02192 30.483 6.14015L26.3112 9.68489C24.4093 11.3006 21.9951 12.1876 19.4996 12.1876C17.0041 12.1876 14.5898 11.3006 12.688 9.68489L8.5162 6.14015C8.37124 6.0159 8.18358 5.953 7.99303 5.96478C7.80247 5.97656 7.62399 6.06209 7.49543 6.20325C7.36688 6.34441 7.29836 6.53008 7.3044 6.72091C7.31044 6.91174 7.39057 7.09271 7.52779 7.22545L15.666 15.4173C15.7788 15.5307 15.8425 15.6839 15.8433 15.8438V18.8907H14.6246V16.0955L6.6637 8.08528C6.30712 7.72904 6.10201 7.24877 6.09127 6.74484C6.08052 6.24091 6.26495 5.75232 6.60602 5.3812C6.94708 5.01008 7.41839 4.78514 7.92143 4.75339C8.42448 4.72165 8.92032 4.88556 9.30534 5.21086L13.4771 8.7562C15.1587 10.1847 17.2932 10.9689 19.4996 10.9689C21.706 10.9689 23.8405 10.1847 25.522 8.7562L29.6938 5.21086C30.0788 4.88556 30.5747 4.72165 31.0777 4.75339C31.5808 4.78514 32.0521 5.01008 32.3931 5.3812C32.7342 5.75232 32.9186 6.24091 32.9079 6.74484C32.8971 7.24877 32.692 7.72904 32.3355 8.08528L24.3746 16.0955V18.8907Z" fill="white"/>
<path d="M19.5 35.3438C14.5165 35.3438 13.118 34.0897 12.9754 33.9465C12.8611 33.8322 12.7969 33.6772 12.7969 33.5156V31.0781C12.7982 29.9472 13.248 28.863 14.0477 28.0633C14.8474 27.2636 15.9316 26.8138 17.0625 26.8125H21.9375C23.0684 26.8138 24.1526 27.2636 24.9523 28.0633C25.752 28.863 26.2018 29.9472 26.2031 31.0781V33.5156C26.2031 33.6772 26.1389 33.8322 26.0246 33.9465C25.882 34.0897 24.4835 35.3438 19.5 35.3438ZM14.0156 33.2018C14.4891 33.4736 15.9888 34.125 19.5 34.125C22.9954 34.125 24.4969 33.4791 24.9844 33.1987V31.0781C24.9834 30.2703 24.6621 29.4959 24.0909 28.9247C23.5197 28.3535 22.7453 28.0322 21.9375 28.0312H17.0625C16.2547 28.0322 15.4803 28.3535 14.9091 28.9247C14.3379 29.4959 14.0166 30.2703 14.0156 31.0781V33.2018Z" fill="white"/>
<path d="M19.5 28.0313C18.6563 28.0313 17.8316 27.7811 17.1301 27.3124C16.4287 26.8437 15.8819 26.1775 15.5591 25.398C15.2362 24.6186 15.1517 23.7609 15.3163 22.9334C15.4809 22.106 15.8872 21.3459 16.4838 20.7494C17.0803 20.1528 17.8404 19.7466 18.6678 19.582C19.4953 19.4174 20.3529 19.5018 21.1324 19.8247C21.9118 20.1476 22.578 20.6943 23.0467 21.3958C23.5155 22.0973 23.7656 22.922 23.7656 23.7656C23.7643 24.8965 23.3145 25.9808 22.5148 26.7805C21.7152 27.5801 20.6309 28.03 19.5 28.0313ZM19.5 20.7188C18.8974 20.7188 18.3083 20.8974 17.8072 21.2322C17.3062 21.567 16.9157 22.0429 16.6851 22.5996C16.4544 23.1564 16.3941 23.769 16.5117 24.36C16.6292 24.9511 16.9194 25.494 17.3455 25.9201C17.7716 26.3462 18.3146 26.6364 18.9056 26.754C19.4966 26.8715 20.1092 26.8112 20.666 26.5806C21.2227 26.35 21.6986 25.9594 22.0334 25.4584C22.3682 24.9573 22.5469 24.3682 22.5469 23.7656C22.5459 22.9578 22.2246 22.1834 21.6534 21.6122C21.0822 21.041 20.3078 20.7197 19.5 20.7188Z" fill="white"/>
<path d="M31.0782 33.5156C29.8144 33.5303 28.5519 33.4269 27.3074 33.2067L27.5365 32.0099C28.7056 32.215 29.8913 32.3111 31.0782 32.2969C34.5735 32.2969 36.075 31.6509 36.5625 31.3706V29.25C36.5616 28.4422 36.2403 27.6678 35.6691 27.0966C35.0979 26.5254 34.3235 26.2041 33.5157 26.2031H28.6407C28.1378 26.2028 27.6426 26.327 27.1995 26.5648C26.7564 26.8026 26.3791 27.1465 26.1014 27.5657L25.0862 26.8911C25.4749 26.3043 26.0031 25.823 26.6234 25.4903C27.2437 25.1575 27.9368 24.9837 28.6407 24.9844H33.5157C34.6466 24.9857 35.7308 25.4355 36.5305 26.2352C37.3302 27.0349 37.78 28.1191 37.7813 29.25V31.6875C37.7813 31.8491 37.717 32.0041 37.6027 32.1183C37.4602 32.2615 36.0616 33.5156 31.0782 33.5156Z" fill="white"/>
<path d="M31.0781 26.2031C30.2345 26.2031 29.4098 25.953 28.7083 25.4842C28.0068 25.0155 27.4601 24.3493 27.1372 23.5699C26.8143 22.7904 26.7299 21.9328 26.8945 21.1053C27.0591 20.2779 27.4653 19.5178 28.0619 18.9213C28.6584 18.3247 29.4185 17.9184 30.2459 17.7538C31.0734 17.5892 31.9311 17.6737 32.7105 17.9966C33.49 18.3194 34.1562 18.8662 34.6249 19.5676C35.0936 20.2691 35.3438 21.0938 35.3438 21.9375C35.3425 23.0684 34.8926 24.1527 34.093 24.9523C33.2933 25.752 32.209 26.2018 31.0781 26.2031ZM31.0781 18.8906C30.4755 18.8906 29.8864 19.0693 29.3854 19.4041C28.8843 19.7389 28.4938 20.2148 28.2632 20.7715C28.0326 21.3283 27.9722 21.9409 28.0898 22.5319C28.2074 23.123 28.4975 23.6659 28.9237 24.092C29.3498 24.5181 29.8927 24.8083 30.4837 24.9258C31.0747 25.0434 31.6874 24.9831 32.2441 24.7524C32.8009 24.5218 33.2767 24.1313 33.6115 23.6303C33.9463 23.1292 34.125 22.5401 34.125 21.9375C34.124 21.1297 33.8027 20.3553 33.2315 19.7841C32.6603 19.2129 31.8859 18.8916 31.0781 18.8906Z" fill="white"/>
<path d="M7.92188 33.5156C2.93841 33.5156 1.53989 32.2615 1.3973 32.1183C1.28301 32.0041 1.21878 31.8491 1.21875 31.6875V29.25C1.22004 28.1191 1.66987 27.0349 2.46955 26.2352C3.26923 25.4355 4.35346 24.9857 5.48438 24.9844H10.3594C11.0633 24.9837 11.7564 25.1575 12.3767 25.4903C12.997 25.823 13.5251 26.3043 13.9139 26.8911L12.8986 27.5657C12.6209 27.1465 12.2436 26.8026 11.8005 26.5648C11.3574 26.327 10.8623 26.2028 10.3594 26.2031H5.48438C4.67659 26.2041 3.90217 26.5254 3.33098 27.0966C2.75979 27.6678 2.43847 28.4422 2.4375 29.25V31.3737C2.91098 31.6455 4.41066 32.2969 7.92188 32.2969C9.10878 32.3111 10.2944 32.215 11.4636 32.0099L11.6927 33.2067C10.4481 33.4269 9.18569 33.5303 7.92188 33.5156Z" fill="white"/>
<path d="M7.92188 26.2031C7.07822 26.2031 6.2535 25.953 5.55202 25.4842C4.85054 25.0155 4.30381 24.3493 3.98095 23.5699C3.6581 22.7904 3.57362 21.9328 3.73821 21.1053C3.9028 20.2779 4.30907 19.5178 4.90562 18.9213C5.50218 18.3247 6.26224 17.9184 7.08969 17.7538C7.91715 17.5892 8.77482 17.6737 9.55426 17.9966C10.3337 18.3194 10.9999 18.8662 11.4686 19.5676C11.9373 20.2691 12.1875 21.0938 12.1875 21.9375C12.1862 23.0684 11.7364 24.1527 10.9367 24.9523C10.137 25.752 9.05279 26.2018 7.92188 26.2031ZM7.92188 18.8906C7.31926 18.8906 6.73018 19.0693 6.22912 19.4041C5.72807 19.7389 5.33754 20.2148 5.10693 20.7715C4.87632 21.3283 4.81598 21.9409 4.93355 22.5319C5.05111 23.123 5.3413 23.6659 5.76741 24.092C6.19352 24.5181 6.73643 24.8083 7.32746 24.9258C7.9185 25.0434 8.53112 24.9831 9.08787 24.7524C9.64461 24.5218 10.1205 24.1313 10.4553 23.6303C10.7901 23.1292 10.9688 22.5401 10.9688 21.9375C10.9678 21.1297 10.6465 20.3553 10.0753 19.7841C9.50408 19.2129 8.72966 18.8916 7.92188 18.8906Z" fill="white"/>
</svg>
