<svg width="141" height="335" viewBox="0 0 141 335" fill="none" xmlns="http://www.w3.org/2000/svg">
<g clip-path="url(#clip0_183_3671)">
<path d="M77.7463 74.5551L77.8794 75.3865L78.0129 76.1686L78.2868 77.7138C78.4731 78.7392 78.6789 79.7536 78.8801 80.77C79.2808 82.8012 79.7444 84.8135 80.2048 86.8272L80.5587 88.3355L80.9297 89.8398C81.1813 90.8419 81.4316 91.8444 81.7002 92.843C81.9624 93.8428 82.2355 94.8413 82.5096 95.8392C82.7932 96.8353 83.0733 97.832 83.3676 98.8267C85.6933 106.898 88.5941 114.793 92.0479 122.451C92.4882 123.423 92.9577 124.393 93.4262 125.361L93.6015 125.725L93.7729 126.068L94.1174 126.754L94.8097 128.123C95.7312 129.95 96.6697 131.76 97.6254 133.554C99.5235 137.156 101.494 140.699 103.499 144.221C105.504 147.742 107.564 151.226 109.681 154.674C110.742 156.397 111.815 158.114 112.902 159.822L114.553 162.375C115.114 163.224 115.667 164.065 116.252 164.92C117.163 166.252 118.536 167.201 120.106 167.583C121.676 167.966 123.332 167.756 124.756 166.993C126.18 166.23 127.271 164.968 127.818 163.451C128.366 161.933 128.332 160.267 127.723 158.774L127.699 158.717C127.328 157.81 126.93 156.887 126.544 155.968L125.361 153.217L122.961 147.732C121.347 144.083 119.725 140.445 118.093 136.818L113.215 125.967L110.81 120.563L109.634 117.884C109.269 117.03 108.903 116.178 108.556 115.306C105.737 108.369 103.363 101.038 101.182 93.6208C100.094 89.9089 99.0635 86.1637 98.0672 82.4079C97.562 80.5317 97.0976 78.6449 96.6109 76.7677L95.2368 71.224L95.1861 71.0192C94.6345 68.7938 93.2425 66.8672 91.3011 65.6418C89.3596 64.4165 87.0188 63.9872 84.7676 64.4436C82.5165 64.9 80.5291 66.2069 79.2207 68.0911C77.9123 69.9754 77.3841 72.2913 77.7463 74.5551Z" fill="#E7A080"/>
<path d="M105.334 128.053C105.439 128.053 105.542 128.022 105.63 127.963C107.726 126.722 109.955 125.719 112.274 124.971C112.342 124.95 112.404 124.916 112.458 124.871C112.512 124.825 112.557 124.77 112.589 124.707C112.622 124.645 112.641 124.577 112.647 124.506C112.653 124.436 112.646 124.366 112.624 124.299C112.603 124.231 112.568 124.169 112.523 124.115C112.477 124.062 112.421 124.017 112.359 123.985C112.296 123.953 112.227 123.933 112.157 123.928C112.087 123.922 112.016 123.93 111.949 123.952C109.533 124.724 107.213 125.771 105.037 127.072C104.941 127.135 104.868 127.228 104.829 127.336C104.79 127.444 104.787 127.562 104.82 127.672C104.853 127.782 104.921 127.879 105.014 127.947C105.106 128.016 105.218 128.053 105.334 128.053Z" fill="#E7A080"/>
<path d="M123.958 157.489C125.139 157.373 126.586 158.833 128.01 159.482C130.12 160.495 132.017 161.902 133.6 163.626C135.345 165.769 140.138 172.359 139.799 174.627C139.46 176.895 134.884 171.53 133.924 170.448C133.375 169.815 132.686 169.315 131.913 168.988C131.913 168.988 141.454 182.107 140.983 183.877C140.513 185.645 134.334 178.723 132.818 177.001C132.818 177.001 139.457 187.285 138.804 188.314C137.492 190.378 129.79 179.172 129.79 179.172C129.79 179.172 134.934 188.107 133.438 188.908C131.854 189.756 126.369 180.171 126.369 180.171C126.369 180.171 128.87 186.485 127.896 187.764C126.921 189.042 120.647 176.19 119.92 174.098C119.194 172.006 116.771 166.53 116.297 163.675C115.975 161.735 120.222 157.856 123.958 157.489Z" fill="#E7A743"/>
<path d="M128.256 159.6C126.715 156.556 125.547 153.338 124.779 150.016C124.779 150.016 112.819 154.461 110.03 158.529C110.03 158.529 115.873 163.533 117.457 167.668C117.457 167.668 122.079 160.617 128.256 159.6Z" fill="#E7A743"/>
<path d="M108.689 156.387C108.711 157.043 108.9 157.682 109.239 158.244C109.578 158.806 110.056 159.272 110.627 159.598C111.11 159.923 125.604 151.83 125.604 151.83C125.528 150.48 124.924 149.214 123.921 148.305C123.921 148.305 115.438 152.968 108.689 156.387Z" fill="#CC861E"/>
<path d="M123.428 177.49C123.451 177.599 123.512 177.695 123.6 177.762C123.688 177.829 123.798 177.861 123.909 177.853C129.329 177.45 132.561 173.158 132.696 172.976C132.767 172.879 132.797 172.757 132.779 172.638C132.761 172.519 132.696 172.412 132.599 172.341C132.502 172.269 132.381 172.239 132.262 172.257C132.142 172.275 132.035 172.339 131.963 172.436C131.932 172.477 128.835 176.575 123.841 176.946C123.72 176.955 123.609 177.012 123.53 177.103C123.451 177.194 123.412 177.313 123.421 177.433C123.422 177.452 123.425 177.471 123.428 177.49Z" fill="#CC861E"/>
<path d="M121.266 166.234C121.284 166.323 121.328 166.404 121.392 166.468C121.457 166.531 121.539 166.574 121.629 166.591C126.976 167.584 127.96 171.726 127.969 171.767C127.995 171.884 128.067 171.986 128.168 172.051C128.268 172.116 128.391 172.138 128.508 172.113C128.626 172.088 128.728 172.018 128.794 171.918C128.86 171.818 128.884 171.696 128.86 171.579L128.858 171.57C128.815 171.375 127.728 166.8 121.796 165.697C121.722 165.684 121.647 165.688 121.576 165.71C121.505 165.733 121.44 165.772 121.388 165.825C121.335 165.878 121.297 165.943 121.276 166.014C121.254 166.086 121.251 166.161 121.266 166.234Z" fill="#CC861E"/>
<path d="M87.894 57.8516C87.894 57.8516 90.2749 60.1433 93.2119 66.0969C96.4935 72.7491 103.289 90.3873 103.289 90.3873C103.289 90.3873 89.029 102.109 80.5598 101.132C80.5598 101.132 72.7783 78.4184 72.2352 72.2638C71.33 62.0056 87.894 57.8516 87.894 57.8516Z" fill="white"/>
<path d="M73.5503 11.6735C58.4273 11.0234 47.1504 21.0497 47.1504 21.0497C44.7542 19.3698 44.1014 18.5885 44.7024 16.0985L44.698 16.0739C44.5829 15.1778 44.5667 14.2717 44.6499 13.3721C44.8271 11.0281 45.602 8.76827 46.901 6.80732C48.1999 4.84637 49.9796 3.24943 52.0711 2.16823C60.0664 -2.27921 66.0467 1.06813 69.1149 3.74654C69.9721 4.4805 70.7451 5.30699 71.4198 6.21086C71.4373 6.22517 71.454 6.23767 71.4716 6.25206C74.8525 8.93527 73.5503 11.6735 73.5503 11.6735Z" fill="#B4512A"/>
<path d="M71.4717 6.25161C62.1203 7.88156 48.8726 13.3837 44.6981 16.0734C44.583 15.1773 44.5668 14.2713 44.65 13.3716C50.9581 9.01575 63.5543 5.10123 69.115 3.74609C69.9722 4.48005 70.7452 5.30654 71.4199 6.21041C71.4374 6.22472 71.4541 6.23722 71.4717 6.25161Z" fill="#E7A743"/>
<path d="M27.9157 31.8267C30.1482 37.9219 46.7494 37.4675 64.9954 30.8116C83.2414 24.1558 96.223 13.8189 93.9904 7.72373C91.7579 1.62835 75.1567 2.08275 56.9107 8.73862C38.6647 15.3945 25.6831 25.7313 27.9157 31.8267Z" fill="#B4512A"/>
<path d="M66.7491 164.475L65.9893 166.518L41.2701 232.946C41.2701 260.391 28.8374 309.899 28.8374 309.899L13.9401 309.193L18.0266 231.778L18.0823 230.717C18.1075 230.621 18.1305 230.525 18.1555 230.427C21.9767 215.178 29.9264 177.088 35.3367 158.717C35.4886 158.198 35.6354 157.698 35.7772 157.217C36.6392 154.295 37.3028 152.048 37.6992 150.706C37.9705 149.792 38.1167 149.299 38.1167 149.299L42.2956 151.515L43.4963 152.15L66.7491 164.475Z" fill="#23221E"/>
<path d="M25.9306 230.837C24.0762 231.552 22.1025 231.909 20.1145 231.889C19.4172 231.888 18.7204 231.851 18.0269 231.778L18.0826 230.716C18.1077 230.62 18.1308 230.524 18.1558 230.426C18.8166 230.497 19.4807 230.532 20.1453 230.533C21.9522 230.555 23.7469 230.235 25.4342 229.589C25.5165 229.555 25.6046 229.538 25.6936 229.539C25.7825 229.54 25.8703 229.558 25.9521 229.593C26.0339 229.627 26.108 229.678 26.1701 229.742C26.2322 229.805 26.2811 229.88 26.3139 229.963C26.3467 230.045 26.3628 230.133 26.3612 230.222C26.3597 230.311 26.3406 230.398 26.3049 230.48C26.2693 230.561 26.2179 230.634 26.1536 230.696C26.0894 230.757 26.0136 230.805 25.9306 230.837Z" fill="#42413C"/>
<path d="M34.3855 276.65C33.9323 276.635 33.5555 276.655 33.1033 276.624C33.7508 273.277 34.57 268.553 34.9273 266.567C36.6939 256.745 37.4361 230.971 37.4433 230.711C37.4458 230.623 37.4656 230.537 37.5017 230.456C41.7011 221.083 60.9126 168.636 61.1063 168.107C61.1367 168.024 61.1831 167.948 61.2429 167.883C61.3027 167.818 61.3748 167.766 61.455 167.729C61.5352 167.691 61.6219 167.67 61.7102 167.667C61.7986 167.663 61.8868 167.677 61.9699 167.707C62.0529 167.737 62.1292 167.783 62.1943 167.843C62.2594 167.903 62.3121 167.975 62.3494 168.055C62.3866 168.135 62.4078 168.221 62.4115 168.31C62.4153 168.398 62.4016 168.486 62.3712 168.569C62.1784 169.096 43.1117 221.146 38.7856 230.883C38.7252 232.914 37.9708 257.254 36.2531 266.804C35.9017 268.758 35.0188 273.374 34.3855 276.65Z" fill="#42413C"/>
<path d="M37.87 153.499C37.9365 154.261 38.0159 155.023 38.1168 155.779C38.179 156.263 38.2519 156.746 38.3335 157.224C38.4728 158.04 38.6337 158.838 38.8269 159.609C38.9319 160.039 39.0478 160.459 39.1744 160.868C39.1796 160.883 39.184 160.899 39.1873 160.915C39.361 161.474 39.5519 162.007 39.76 162.516C41.6093 167.04 55.9208 167.706 70.0047 166.132C80.933 164.914 91.7261 162.345 96.4651 159.187C97.4133 158.556 97.7287 156.819 97.6386 154.473C97.6214 154.021 97.5893 153.546 97.5443 153.055C97.2574 150.433 96.8038 147.832 96.1862 145.267C95.7336 143.303 95.2187 141.314 94.6975 139.433C93.0928 133.652 91.4366 128.869 91.4366 128.869L37.9923 140.062C37.9923 140.062 37.8292 141.606 37.7241 143.967C37.5731 147.144 37.6218 150.328 37.87 153.499Z" fill="#23221E"/>
<path d="M97.7119 155.572C97.7081 155.99 97.7042 156.403 97.7004 156.82C97.6947 157.799 97.683 158.776 97.6735 159.75C97.6675 160.255 97.6611 160.759 97.6542 161.261C97.6542 161.332 97.6542 161.399 97.6524 161.466C97.6503 161.931 97.6446 162.394 97.6387 162.855C97.2752 193.061 96.2113 220.665 94.0333 240.475V240.484L93.7909 241.842L81.6025 310.345L65.9145 309.022C65.9145 309.022 66.484 254.781 69.9375 242.402L69.8739 166.476L69.8682 155.547L91.0107 157.767L92.3286 157.335L93.1059 157.081L94.3968 156.659L97.7119 155.572Z" fill="#23221E"/>
<path d="M94.0332 240.475V240.485L93.7908 241.842C93.5464 241.854 93.304 241.859 93.0635 241.859C89.6899 241.773 86.3879 240.869 83.4418 239.227C83.2882 239.136 83.1772 238.987 83.1331 238.815C83.0891 238.642 83.1157 238.459 83.207 238.305C83.2984 238.152 83.447 238.041 83.6201 237.997C83.7933 237.953 83.9769 237.98 84.1305 238.071C87.1588 239.736 90.5769 240.566 94.0332 240.475Z" fill="#42413C"/>
<path d="M69.0011 304.772C69.0279 304.775 69.055 304.776 69.0821 304.776C69.256 304.775 69.4222 304.704 69.5442 304.581C69.6662 304.457 69.7339 304.29 69.7325 304.116C69.3677 258.383 75.1097 240.261 75.1677 240.083C75.1904 240.014 75.2014 239.942 75.2001 239.87L74.0543 167.333C74.051 167.16 73.979 166.995 73.8542 166.875C73.7294 166.755 73.5619 166.689 73.3884 166.691C73.2149 166.694 73.0496 166.765 72.9287 166.89C72.8077 167.014 72.741 167.181 72.7431 167.354L73.8872 239.786C73.4067 241.366 68.069 259.975 68.4211 304.127C68.4224 304.286 68.4821 304.44 68.5889 304.559C68.6957 304.677 68.8423 304.753 69.0011 304.772Z" fill="#42413C"/>
<path d="M46.5585 145.209C45.8472 147.647 44.8174 149.981 43.4956 152.15C42.2384 154.313 40.4868 156.15 38.3835 157.509C38.1334 157.661 37.8776 157.801 37.614 157.929C36.8917 158.288 36.1261 158.553 35.336 158.717C35.4879 158.198 35.6347 157.698 35.7765 157.217C36.2044 157.087 36.6208 156.922 37.0214 156.724C37.4145 156.529 37.7938 156.308 38.1565 156.061C39.8346 154.846 41.2434 153.298 42.295 151.515C43.5644 149.432 44.5596 147.194 45.2559 144.858C45.3033 144.686 45.4169 144.54 45.5718 144.452C45.7267 144.364 45.9103 144.34 46.0825 144.387C46.2547 144.433 46.4014 144.546 46.4906 144.7C46.5798 144.854 46.6042 145.037 46.5585 145.209Z" fill="#42413C"/>
<path d="M63.7443 335L108.064 334.998C108.253 334.23 108.26 333.429 108.084 332.658C107.7 330.75 106.23 327.997 101.423 325.655C101.144 325.52 100.854 325.385 100.552 325.252C100.002 325.01 99.4145 324.773 98.7838 324.543C87.8276 320.551 83.1122 316.412 83.1122 316.412L88.5721 282.476C80.6418 281.004 72.6415 279.937 64.6024 279.277V320.152C64.6024 320.152 63.9266 327.301 63.7722 332.658C63.7486 333.493 63.7379 334.285 63.7443 335Z" fill="#E7A743"/>
<path d="M66.7491 319.671C66.8616 319.671 66.9695 319.627 67.0497 319.548C67.1299 319.47 67.176 319.363 67.1779 319.251L67.8202 282.813C67.8212 282.756 67.8111 282.701 67.7905 282.648C67.7698 282.596 67.7391 282.548 67.6999 282.508C67.6608 282.467 67.614 282.435 67.5624 282.412C67.5107 282.39 67.4551 282.378 67.3987 282.377H67.391C67.2785 282.377 67.1706 282.421 67.0904 282.5C67.0102 282.578 66.9641 282.685 66.9621 282.798L66.3198 319.236C66.3188 319.292 66.3289 319.348 66.3496 319.4C66.3702 319.452 66.401 319.5 66.4401 319.541C66.4793 319.581 66.526 319.613 66.5777 319.636C66.6294 319.658 66.685 319.67 66.7413 319.671H66.7491Z" fill="#CC861E"/>
<path d="M64.6028 318.566V319.425C65.5041 319.472 66.386 319.704 67.1934 320.106C68.0007 320.509 68.716 321.074 69.2946 321.765C72.6413 325.809 71.3927 333.671 71.3799 333.75C71.3614 333.862 71.3884 333.977 71.4547 334.069C71.5211 334.162 71.6215 334.224 71.7338 334.242C71.7574 334.245 71.781 334.247 71.8025 334.247C71.9042 334.247 72.0027 334.211 72.0805 334.146C72.1583 334.08 72.2103 333.989 72.2273 333.889C72.2809 333.551 73.5488 325.561 69.9554 321.219C69.2974 320.429 68.4814 319.786 67.5597 319.329C66.638 318.872 65.6309 318.612 64.6028 318.566Z" fill="#CC861E"/>
<path d="M97.4626 333.803C97.4623 333.859 97.4732 333.915 97.4945 333.967C97.5159 334.019 97.5473 334.066 97.5869 334.105C97.6266 334.145 97.6737 334.177 97.7257 334.198C97.7776 334.22 97.8333 334.231 97.8895 334.231H97.8917C98.005 334.231 98.1137 334.186 98.194 334.106C98.2744 334.026 98.3199 333.918 98.3207 333.805C98.3314 329.183 100.028 326.817 101.423 325.654C101.144 325.52 100.854 325.385 100.552 325.252C99.0737 326.611 97.4712 329.157 97.4626 333.803Z" fill="#CC861E"/>
<path d="M63.7443 335L108.064 334.998C108.253 334.23 108.26 333.429 108.084 332.658L63.7774 332.213C63.7538 333.048 63.7379 334.285 63.7443 335Z" fill="#CC861E"/>
<path d="M90.2393 280.991L88.9392 287.832L63.7446 285.059V277.779L90.2393 280.991Z" fill="#CC861E"/>
<path d="M83.1133 294.222C82.922 294.151 82.7633 294.013 82.6671 293.833C82.571 293.654 82.5439 293.445 82.5912 293.247C82.6384 293.049 82.7566 292.875 82.9235 292.757C83.0905 292.64 83.2946 292.588 83.4974 292.611L86.7427 292.973C86.8518 292.985 86.9575 293.019 87.0538 293.072C87.15 293.124 87.2348 293.196 87.3034 293.281C87.3719 293.367 87.4229 293.465 87.4534 293.571C87.4839 293.676 87.4934 293.786 87.4811 293.895C87.4689 294.004 87.4353 294.11 87.3822 294.206C87.3291 294.301 87.2576 294.386 87.1718 294.454C87.0859 294.523 86.9874 294.574 86.8818 294.604C86.7763 294.634 86.6658 294.644 86.5566 294.631L83.3114 294.269C83.2437 294.261 83.1772 294.246 83.1133 294.222Z" fill="#CC861E"/>
<path d="M82.5812 297.585C82.3898 297.514 82.2311 297.376 82.1349 297.197C82.0388 297.017 82.0117 296.808 82.0589 296.61C82.1062 296.412 82.2244 296.238 82.3913 296.121C82.5582 296.004 82.7623 295.951 82.9652 295.974L86.2104 296.336C86.3196 296.349 86.4253 296.382 86.5215 296.435C86.6177 296.488 86.7026 296.559 86.7711 296.645C86.8397 296.73 86.8907 296.829 86.9212 296.934C86.9517 297.039 86.9611 297.15 86.9489 297.259C86.9367 297.367 86.9031 297.473 86.85 297.569C86.7969 297.665 86.7254 297.749 86.6395 297.818C86.5537 297.886 86.4552 297.937 86.3496 297.967C86.2441 297.998 86.1335 298.007 86.0244 297.995L82.7791 297.632C82.7115 297.625 82.645 297.609 82.5812 297.585Z" fill="#CC861E"/>
<path d="M82.1495 301.054C81.9582 300.983 81.7995 300.845 81.7034 300.665C81.6072 300.486 81.5802 300.277 81.6274 300.079C81.6747 299.881 81.7929 299.707 81.9598 299.589C82.1267 299.472 82.3308 299.42 82.5336 299.443L85.7788 299.805C85.888 299.817 85.9937 299.851 86.0899 299.904C86.1861 299.957 86.2709 300.028 86.3395 300.113C86.4081 300.199 86.4591 300.297 86.4896 300.403C86.5201 300.508 86.5295 300.618 86.5173 300.727C86.505 300.836 86.4714 300.942 86.4183 301.038C86.3653 301.134 86.2937 301.218 86.2079 301.286C86.122 301.355 86.0235 301.406 85.918 301.436C85.8124 301.466 85.7019 301.476 85.5928 301.463L82.3475 301.101C82.2798 301.093 82.2133 301.078 82.1495 301.054Z" fill="#CC861E"/>
<path d="M81.6074 304.374C81.4162 304.303 81.2575 304.165 81.1613 303.985C81.0651 303.806 81.0381 303.597 81.0854 303.399C81.1326 303.201 81.2508 303.027 81.4177 302.91C81.5846 302.793 81.7887 302.74 81.9915 302.763L85.2368 303.125C85.346 303.138 85.4517 303.171 85.5479 303.224C85.6441 303.277 85.7289 303.348 85.7975 303.434C85.8661 303.519 85.9171 303.618 85.9476 303.723C85.9781 303.828 85.9875 303.939 85.9753 304.047C85.9631 304.156 85.9294 304.262 85.8764 304.358C85.8233 304.454 85.7518 304.538 85.6659 304.607C85.58 304.675 85.4815 304.726 85.376 304.756C85.2704 304.787 85.1599 304.796 85.0508 304.784L81.8055 304.421C81.7378 304.414 81.6713 304.398 81.6074 304.374Z" fill="#CC861E"/>
<path d="M80.9259 308.013C80.7346 307.942 80.5759 307.804 80.4797 307.624C80.3836 307.445 80.3566 307.236 80.4038 307.038C80.451 306.84 80.5692 306.666 80.7361 306.548C80.9031 306.431 81.1072 306.379 81.31 306.402L84.5552 306.764C84.6643 306.776 84.77 306.81 84.8663 306.863C84.9625 306.915 85.0473 306.987 85.1159 307.072C85.1844 307.158 85.2354 307.256 85.2659 307.362C85.2964 307.467 85.3059 307.577 85.2936 307.686C85.2814 307.795 85.2478 307.901 85.1947 307.997C85.1416 308.092 85.0701 308.177 84.9843 308.245C84.8984 308.314 84.7999 308.365 84.6943 308.395C84.5888 308.425 84.4783 308.435 84.3691 308.422L81.1239 308.06C81.0562 308.052 80.9897 308.037 80.9259 308.013Z" fill="#CC861E"/>
<path d="M80.3836 311.333C80.1923 311.262 80.0336 311.124 79.9374 310.944C79.8413 310.765 79.8142 310.556 79.8615 310.358C79.9087 310.16 80.0269 309.986 80.1938 309.869C80.3607 309.752 80.5648 309.699 80.7677 309.722L84.0129 310.084C84.1221 310.097 84.2278 310.13 84.324 310.183C84.4202 310.236 84.505 310.307 84.5736 310.393C84.6422 310.478 84.6932 310.577 84.7237 310.682C84.7542 310.787 84.7636 310.898 84.7514 311.006C84.7392 311.115 84.7056 311.221 84.6525 311.317C84.5994 311.413 84.5279 311.497 84.442 311.566C84.3562 311.634 84.2576 311.685 84.1521 311.715C84.0465 311.746 83.936 311.755 83.8269 311.743L80.5816 311.38C80.5139 311.373 80.4474 311.357 80.3836 311.333Z" fill="#CC861E"/>
<path d="M79.8995 315.449C79.7082 315.378 79.5496 315.239 79.4534 315.06C79.3572 314.88 79.3302 314.672 79.3774 314.473C79.4247 314.275 79.5429 314.101 79.7098 313.984C79.8767 313.867 80.0808 313.815 80.2836 313.837L83.5288 314.2C83.638 314.212 83.7437 314.245 83.8399 314.298C83.9361 314.351 84.0209 314.422 84.0895 314.508C84.1581 314.594 84.2091 314.692 84.2396 314.797C84.2701 314.902 84.2795 315.013 84.2673 315.122C84.255 315.231 84.2214 315.336 84.1683 315.432C84.1153 315.528 84.0437 315.613 83.9579 315.681C83.872 315.749 83.7735 315.8 83.668 315.831C83.5624 315.861 83.4519 315.87 83.3428 315.858L80.0975 315.495C80.0298 315.488 79.9633 315.472 79.8995 315.449Z" fill="#CC861E"/>
<path d="M30.4542 332.35C30.4542 332.448 30.4518 332.544 30.4495 332.637C30.4402 333.074 30.4215 333.466 30.4028 333.802C30.3582 334.543 30.3043 334.998 30.3043 334.998H5.68319C5.60486 334.213 5.59543 333.423 5.65504 332.637C5.81662 330.126 6.65202 326.161 10.0523 323.54C14.7069 319.949 12.9096 320.698 13.8645 319.061C13.9722 318.879 14.8099 316.097 14.8989 315.906C15.6992 314.206 16.4363 313.402 20.8477 313.402C26.6981 313.402 27.2129 316.235 27.8378 317.728C28.2369 318.862 28.5621 320.02 28.8114 321.196C28.9587 321.817 29.1062 322.48 29.2512 323.155C29.6116 324.848 29.9487 326.616 30.1779 328.027C30.3926 329.457 30.485 330.904 30.4542 332.35Z" fill="#E7A743"/>
<path d="M25.5632 334.035C25.631 334.034 25.6977 334.018 25.7581 333.988C25.8184 333.957 25.8706 333.912 25.9104 333.858C25.9502 333.803 25.9764 333.74 25.987 333.673C25.9975 333.606 25.9921 333.538 25.9711 333.473C25.9436 333.39 23.1392 325.094 15.3565 325.094H15.3312C7.54878 325.112 5.84608 333.064 5.83003 333.145C5.81886 333.2 5.81868 333.256 5.82949 333.312C5.84031 333.367 5.86191 333.419 5.89305 333.466C5.9242 333.513 5.96428 333.553 6.01102 333.585C6.05775 333.616 6.11022 333.638 6.16543 333.649C6.22065 333.66 6.27752 333.66 6.3328 333.649C6.38808 333.639 6.4407 333.617 6.48764 333.586C6.53458 333.555 6.57493 333.515 6.60637 333.468C6.63782 333.422 6.65975 333.369 6.67091 333.314C6.73236 333.015 8.25776 325.966 15.3333 325.95H15.3564C22.5117 325.95 25.1297 333.661 25.1555 333.74C25.1837 333.825 25.2383 333.9 25.3115 333.953C25.3847 334.006 25.4728 334.034 25.5632 334.035Z" fill="#CC861E"/>
<path d="M28.1266 318.566L35.9854 276.866L13.9409 276.066L13.4861 320.154L28.1266 318.566Z" fill="#E7A743"/>
<path d="M26.7023 318.67C26.8021 318.67 26.8988 318.635 26.9756 318.572C27.0525 318.508 27.1047 318.42 27.1234 318.322L34.3461 280.427C34.3671 280.316 34.343 280.201 34.2789 280.107C34.2149 280.013 34.1163 279.949 34.0046 279.927C33.893 279.906 33.7775 279.93 33.6834 279.994C33.5894 280.057 33.5245 280.156 33.503 280.267L26.2804 318.162C26.2686 318.224 26.2706 318.288 26.2864 318.349C26.3021 318.41 26.3312 318.467 26.3715 318.515C26.4118 318.564 26.4623 318.603 26.5195 318.63C26.5767 318.657 26.6392 318.67 26.7023 318.67Z" fill="#CC861E"/>
<path d="M36.9121 276.703L36.1724 283.627L12.1843 282.942L12.7695 276.213L36.9121 276.703Z" fill="#CC861E"/>
<path d="M25.6832 288.399C25.6237 288.401 25.5643 288.395 25.5063 288.382C23.6262 287.946 21.6694 287.963 19.7972 288.431C19.6195 288.485 19.4274 288.466 19.2633 288.38C19.0991 288.293 18.9762 288.144 18.9215 287.967C18.8667 287.79 18.8846 287.598 18.9712 287.434C19.0579 287.27 19.2062 287.147 19.3836 287.092C21.4909 286.549 23.6986 286.522 25.8183 287.015C25.9848 287.053 26.1318 287.15 26.2317 287.289C26.3315 287.427 26.3775 287.597 26.3609 287.766C26.3444 287.936 26.2664 288.094 26.1417 288.21C26.0169 288.327 25.8539 288.394 25.6832 288.399Z" fill="#CC861E"/>
<path d="M25.1354 291.674C25.0759 291.676 25.0164 291.67 24.9584 291.657C23.0784 291.222 21.1216 291.239 19.2493 291.706C19.0715 291.761 18.8793 291.742 18.715 291.655C18.5507 291.568 18.4277 291.42 18.3729 291.243C18.3181 291.065 18.3361 290.873 18.4228 290.709C18.5096 290.545 18.6581 290.422 18.8357 290.367C20.943 289.824 23.1507 289.798 25.2704 290.291C25.4369 290.329 25.5839 290.426 25.6838 290.564C25.7837 290.702 25.8297 290.872 25.8131 291.042C25.7966 291.211 25.7186 291.369 25.5939 291.486C25.4691 291.602 25.3061 291.669 25.1354 291.674Z" fill="#CC861E"/>
<path d="M24.8816 295.231C24.8221 295.233 24.7626 295.227 24.7046 295.214C22.8246 294.778 20.8677 294.795 18.9955 295.263C18.8177 295.317 18.6257 295.299 18.4616 295.212C18.2974 295.125 18.1745 294.976 18.1197 294.799C18.065 294.622 18.0829 294.43 18.1695 294.266C18.2562 294.102 18.4045 293.979 18.5819 293.924C20.6892 293.381 22.8969 293.354 25.0166 293.847C25.1831 293.885 25.33 293.982 25.4299 294.121C25.5298 294.259 25.5757 294.429 25.5592 294.598C25.5426 294.768 25.4647 294.926 25.34 295.042C25.2153 295.159 25.0523 295.226 24.8816 295.231Z" fill="#CC861E"/>
<path d="M24.4148 298.825C24.3553 298.826 24.2958 298.821 24.2378 298.807C22.3578 298.372 20.4009 298.389 18.5287 298.857C18.3509 298.911 18.1589 298.892 17.9948 298.805C17.8306 298.718 17.7077 298.57 17.6529 298.393C17.5982 298.216 17.6161 298.024 17.7027 297.86C17.7894 297.696 17.9377 297.573 18.1151 297.517C20.2224 296.974 22.4301 296.948 24.5498 297.441C24.7163 297.479 24.8632 297.576 24.9631 297.714C25.063 297.853 25.1089 298.023 25.0924 298.192C25.0758 298.362 24.9979 298.52 24.8732 298.636C24.7485 298.752 24.5855 298.82 24.4148 298.825Z" fill="#CC861E"/>
<path d="M23.8668 302.096C23.8073 302.098 23.7479 302.092 23.6899 302.079C21.8098 301.643 19.853 301.66 17.9808 302.128C17.8029 302.183 17.6104 302.165 17.4458 302.078C17.2812 301.991 17.1579 301.843 17.103 301.665C17.0482 301.487 17.0662 301.295 17.1533 301.131C17.2403 300.967 17.3892 300.844 17.5671 300.789C19.6745 300.246 21.8822 300.22 24.0019 300.713C24.1684 300.75 24.3154 300.848 24.4153 300.986C24.5151 301.124 24.5611 301.294 24.5445 301.464C24.528 301.633 24.45 301.791 24.3253 301.908C24.2005 302.024 24.0375 302.091 23.8668 302.096Z" fill="#CC861E"/>
<path d="M23.6129 305.653C23.5534 305.655 23.494 305.649 23.436 305.635C21.5559 305.2 19.5991 305.217 17.7268 305.685C17.5491 305.739 17.3571 305.72 17.1929 305.633C17.0287 305.546 16.9058 305.398 16.8511 305.221C16.7963 305.044 16.8142 304.852 16.9009 304.688C16.9875 304.524 17.1358 304.401 17.3132 304.345C19.4206 303.803 21.6282 303.776 23.7479 304.269C23.9144 304.307 24.0614 304.404 24.1613 304.543C24.2612 304.681 24.3072 304.851 24.2906 305.02C24.2741 305.19 24.1961 305.348 24.0714 305.464C23.9466 305.581 23.7836 305.648 23.6129 305.653Z" fill="#CC861E"/>
<path d="M23.4362 309.461C23.3767 309.463 23.3173 309.457 23.2593 309.444C21.3792 309.009 19.4224 309.026 17.5502 309.493C17.4621 309.52 17.3695 309.53 17.2777 309.521C17.1859 309.513 17.0967 309.486 17.0152 309.443C16.9336 309.4 16.8614 309.342 16.8026 309.271C16.7438 309.2 16.6995 309.118 16.6724 309.03C16.6452 308.942 16.6356 308.85 16.6443 308.758C16.6529 308.667 16.6795 308.578 16.7226 308.496C16.7657 308.415 16.8245 308.343 16.8955 308.284C16.9665 308.225 17.0484 308.181 17.1365 308.154C19.2439 307.611 21.4516 307.585 23.5713 308.078C23.7378 308.116 23.8847 308.213 23.9846 308.351C24.0845 308.489 24.1304 308.659 24.1139 308.829C24.0973 308.999 24.0194 309.156 23.8946 309.273C23.7699 309.389 23.6069 309.456 23.4362 309.461Z" fill="#CC861E"/>
<path d="M30.4541 332.351C30.4541 332.449 30.4517 332.545 30.4495 332.638C30.4401 333.075 30.4214 333.468 30.4027 333.804C29.2258 332.993 28.3317 331.836 27.8447 330.494C26.3213 326.354 28.6637 321.384 28.7621 321.174L28.8114 321.197C28.9586 321.818 29.1062 322.482 29.2512 323.157C28.6967 324.847 28.0577 327.69 28.9447 330.095C29.2589 330.957 29.7766 331.731 30.4541 332.351Z" fill="#CC861E"/>
<path d="M30.4492 332.639C30.4164 334.038 30.304 335 30.304 335H5.68288C5.60455 334.215 5.59512 333.425 5.65473 332.639H30.4492Z" fill="#CC861E"/>
<path d="M29.9992 113.302C30.13 114.646 30.2802 115.993 30.4583 117.333C30.6342 118.658 30.9796 120.596 31.4408 122.906C33.3244 132.352 37.1452 147.981 39.1682 153.021C40.0242 153.404 40.8631 153.761 41.6912 154.091L94.9573 146.617C95.6502 146.043 95.5357 145.564 96.1514 144.956C93.429 135.529 91.1665 118.232 89.8857 110.874C89.6433 109.504 89.4266 108.17 89.2293 106.864C89.0362 105.592 88.861 104.351 88.7037 103.141C88.5599 102.042 88.4291 100.963 88.3154 99.9121C88.2853 99.6445 88.2574 99.3768 88.2296 99.1135C88.0837 97.7112 87.9593 96.3552 87.8563 95.0457C87.7469 93.6434 87.661 92.2946 87.5967 90.9907C86.715 73.2208 89.7206 64.3509 88.738 60.1161C87.6825 55.5473 84.3315 54.3826 80.5043 53.4063C79.069 53.0402 77.5652 52.6998 76.0913 52.216C75.6902 52.0854 75.2933 51.9441 74.8985 51.7878C74.6862 51.7021 74.4738 51.6144 74.2678 51.5244C72.3864 50.6959 72.3151 48.9192 70.8863 46.9688L54.8145 47.379C54.8145 47.379 52.0337 49.118 49.7704 50.3576C49.5559 50.4754 49.3371 50.591 49.1032 50.7087C47.1992 51.6671 45.1928 52.4076 43.1221 52.9161C42.5428 53.0616 41.94 53.1944 41.3093 53.3143C40.5053 53.4654 39.7215 53.7082 38.973 54.0379C33.3673 56.5043 30.2973 63.7664 29.9412 74.6274C29.7396 80.8319 29.5014 86.681 29.3963 92.3138C29.3877 92.6906 29.3813 93.0632 29.377 93.4336C29.2118 100.063 29.4195 106.696 29.9992 113.302Z" fill="white"/>
<path d="M87.1225 87.1451C87.225 87.145 87.324 87.1082 87.4017 87.0416C87.4794 86.9749 87.5306 86.8827 87.5461 86.7816C87.5677 86.6402 89.6958 72.5359 88.6567 62.3682C88.6511 62.3122 88.6345 62.2578 88.6078 62.2082C88.5812 62.1585 88.5449 62.1146 88.5012 62.079C88.4575 62.0434 88.4072 62.0167 88.3531 62.0005C88.2991 61.9843 88.2424 61.9789 88.1862 61.9846C88.1301 61.9904 88.0756 62.0071 88.026 62.0339C87.9763 62.0606 87.9324 62.0969 87.8968 62.1406C87.8613 62.1843 87.8347 62.2346 87.8186 62.2886C87.8025 62.3426 87.7973 62.3992 87.8032 62.4553C88.831 72.5156 86.7192 86.5121 86.6976 86.6524C86.6882 86.7134 86.6921 86.7758 86.7092 86.8352C86.7262 86.8946 86.7559 86.9496 86.7963 86.9964C86.8367 87.0433 86.8868 87.0808 86.9431 87.1065C86.9994 87.1321 87.0606 87.1453 87.1225 87.1451Z" fill="#E7E7CF"/>
<path d="M88.5147 69.5183C88.6052 69.5183 88.6934 69.4897 88.7666 69.4365C89.7166 68.5758 90.4192 67.4777 90.8017 66.2554C90.8387 66.1486 90.8318 66.0315 90.7826 65.9296C90.7334 65.8278 90.6458 65.7496 90.539 65.7119C90.4322 65.6743 90.3148 65.6803 90.2125 65.7287C90.1101 65.7771 90.0311 65.8639 89.9926 65.9702C89.6687 67.0298 89.072 67.9861 88.2621 68.7436C88.1887 68.7968 88.1342 68.8718 88.1062 68.9578C88.0782 69.0439 88.0782 69.1366 88.1063 69.2226C88.1343 69.3086 88.189 69.3836 88.2623 69.4367C88.3357 69.4898 88.4241 69.5184 88.5147 69.5183Z" fill="#E7E7CF"/>
<path d="M65.666 61.6708C68.3997 61.6514 71.0384 60.6676 73.1154 58.8937C73.1591 58.8582 73.1953 58.8144 73.222 58.7649C73.2488 58.7154 73.2655 58.6611 73.2712 58.6051C73.2769 58.5492 73.2716 58.4927 73.2554 58.4388C73.2392 58.3849 73.2126 58.3347 73.177 58.2911C73.1414 58.2475 73.0975 58.2114 73.0479 58.1847C72.9983 58.158 72.9439 58.1413 72.8879 58.1356C72.8318 58.1299 72.7751 58.1353 72.7212 58.1514C72.6672 58.1675 72.6169 58.1941 72.5732 58.2297C71.4703 59.1791 70.184 59.8927 68.7939 60.3264C67.4037 60.7601 65.9391 60.9047 64.4907 60.7512C57.1403 59.9686 50.7808 52.1288 50.7175 52.0496C50.6465 51.9609 50.5431 51.9039 50.43 51.8913C50.3168 51.8787 50.2034 51.9115 50.1145 51.9824C50.0255 52.0533 49.9685 52.1565 49.9559 52.2694C49.9432 52.3822 49.976 52.4955 50.0471 52.5842C50.3147 52.9185 56.6884 60.7798 64.3967 61.6025C64.8183 61.6478 65.242 61.6706 65.666 61.6708Z" fill="#E7E7CF"/>
<path d="M31.1876 123.29C33.4187 135.596 35.8365 147.117 39.2518 154.435L41.6911 154.092L94.9572 146.618L96.2822 145.896C96.2822 145.896 92.7218 119.895 88.3153 99.9131C88.1243 99.0524 87.9348 98.2053 87.7468 97.3717C83.173 77.1697 84.2585 67.7667 80.5042 53.4073C80.5042 53.4073 77.6058 51.8615 76.0076 51.9258C76.0076 51.9258 76.0376 52.0264 76.0913 52.2169C76.6576 54.2444 79.9314 66.4907 79.5238 77.1569C79.5238 77.1569 61.8227 77.8142 52.9282 78.51C52.9282 78.51 51.0983 63.5233 43.122 52.917C41.6462 52.7539 40.1633 53.1539 38.9708 54.0368L38.9729 54.0389C39.1231 54.2894 50.7529 73.7399 45.8465 91.2443C42.5389 102.414 37.6905 113.07 31.4407 122.907C31.2755 123.16 31.1876 123.29 31.1876 123.29Z" fill="#23221E"/>
<path d="M97.6377 154.472C97.5882 154.46 97.5394 154.446 97.4914 154.43C96.5095 154.095 95.5726 153.641 94.7017 153.078C94.4651 152.926 94.2361 152.769 94.011 152.604C93.1705 151.987 92.3944 151.287 91.6946 150.515C87.3694 145.78 86.0767 139.094 86.015 138.756C85.9839 138.586 86.0216 138.41 86.12 138.268C86.2183 138.125 86.3693 138.027 86.5398 137.995C86.7103 137.964 86.8865 138.001 87.0298 138.098C87.173 138.196 87.2717 138.346 87.3041 138.516C87.3196 138.597 88.6392 145.434 92.9567 149.935C93.5969 150.61 94.3041 151.219 95.0673 151.751C95.1807 151.828 95.2943 151.905 95.4098 151.98C96.0821 152.41 96.7971 152.771 97.5435 153.055C97.5896 153.546 97.6204 154.021 97.6377 154.472Z" fill="#42413C"/>
<path d="M75.3201 163.296C75.3242 163.437 75.2722 163.574 75.1756 163.677C75.079 163.781 74.9454 163.842 74.8039 163.848L74.7996 163.848C74.6576 163.857 74.5177 163.81 74.4106 163.716C74.3035 163.623 74.238 163.491 74.2285 163.349C74.1322 161.376 74.0158 159.357 73.8886 157.34C73.8663 156.985 73.8441 156.63 73.8196 156.275C73.3897 149.683 72.8441 143.211 72.4325 138.642C72.3985 138.272 72.3672 137.914 72.3347 137.57C72.2429 136.567 72.1598 135.678 72.0888 134.925C72.4511 134.869 72.8134 134.81 73.1712 134.75C73.2422 135.503 73.3259 136.401 73.4182 137.414C73.4507 137.758 73.4821 138.117 73.5161 138.486C73.9234 143.015 74.4657 149.43 74.8955 155.982C74.9203 156.343 74.9429 156.707 74.9678 157.068C75.0992 159.159 75.22 161.254 75.3201 163.296Z" fill="#42413C"/>
<path d="M76.8774 156.338C76.2593 156.627 75.6212 156.871 74.9682 157.068C74.628 157.171 74.2633 157.265 73.8889 157.339C73.5475 157.407 73.2019 157.452 72.8545 157.474C72.2291 157.532 71.5989 157.433 71.0214 157.187C70.6942 157.031 70.4101 156.798 70.1934 156.508C69.9767 156.217 69.834 155.879 69.7777 155.522C69.3804 153.488 68.5463 145.091 67.9848 139.151C67.9489 138.786 67.9156 138.43 67.8829 138.084C67.7941 137.134 67.7146 136.27 67.6469 135.535C68.0077 135.492 68.371 135.448 68.7338 135.4C68.8018 136.139 68.8819 137.013 68.9736 137.976C69.0061 138.32 69.0394 138.676 69.0733 139.044C69.6362 144.968 70.4674 153.353 70.8525 155.324C70.8755 155.52 70.948 155.708 71.0631 155.869C71.1782 156.03 71.3322 156.159 71.5108 156.244C72.2594 156.489 73.0652 156.5 73.8199 156.274C74.1874 156.195 74.5539 156.092 74.8958 155.982C75.4072 155.817 75.9079 155.622 76.395 155.396C76.524 155.333 76.6723 155.323 76.8087 155.367C76.945 155.411 77.0589 155.506 77.1263 155.633C77.1577 155.695 77.1762 155.763 77.1806 155.833C77.185 155.902 77.1753 155.972 77.1521 156.038C77.1289 156.104 77.0926 156.165 77.0454 156.216C76.9982 156.268 76.941 156.309 76.8774 156.338Z" fill="#42413C"/>
<path d="M81.5398 123.908C83.2763 123.907 85.0085 123.737 86.7116 123.398C86.767 123.387 86.8198 123.366 86.8668 123.335C86.9139 123.303 86.9543 123.263 86.9858 123.216C87.0173 123.17 87.0392 123.117 87.0502 123.062C87.0613 123.007 87.0614 122.95 87.0504 122.894C87.0394 122.839 87.0175 122.787 86.9861 122.74C86.9547 122.693 86.9144 122.653 86.8674 122.621C86.8204 122.59 86.7676 122.568 86.7122 122.558C86.6568 122.547 86.5998 122.547 86.5444 122.558C76.1679 124.613 67.4362 119.847 61.9407 115.487C58.2873 112.577 55.0604 109.171 52.3542 105.368C52.2914 105.273 52.1934 105.207 52.0819 105.184C51.9703 105.162 51.8544 105.184 51.7595 105.247C51.6647 105.31 51.5986 105.407 51.576 105.519C51.5534 105.63 51.5759 105.746 51.6388 105.84C54.3905 109.712 57.6719 113.179 61.3874 116.142C66.0943 119.881 73.1206 123.908 81.5398 123.908Z" fill="#42413C"/>
<path d="M41.6751 147.5C41.7678 147.5 41.859 147.476 41.9397 147.43C42.0203 147.384 42.0877 147.318 42.1352 147.239C42.1828 147.159 42.2088 147.069 42.2108 146.976C42.2128 146.884 42.1907 146.792 42.1467 146.711C37.2718 137.69 34.1845 120.826 34.1539 120.657C34.1282 120.518 34.0482 120.394 33.9315 120.314C33.8148 120.233 33.6709 120.202 33.5312 120.227C33.3916 120.252 33.2677 120.332 33.1865 120.448C33.1054 120.564 33.0737 120.708 33.0984 120.847C33.1292 121.018 36.2475 138.049 41.2027 147.219C41.2486 147.304 41.3168 147.375 41.4 147.425C41.4831 147.474 41.5782 147.5 41.6751 147.5Z" fill="#42413C"/>
<path d="M55.4128 86.248C55.4128 86.248 55.8135 101.881 69.6824 101.097C83.5514 100.312 80.09 84.8516 80.09 84.8516L55.4128 86.248Z" fill="#42413C"/>
<path d="M75.0244 24.433C75.4729 22.4227 75.6695 20.3647 75.6096 18.3061C75.4781 15.2571 74.0238 14.5252 74.0238 14.5252C73.8561 13.1604 73.2284 11.8931 72.2438 10.9313C71.2591 9.9695 69.976 9.37045 68.6052 9.23247C64.7456 8.73285 57.0942 10.5904 51.6695 14.228C43.9465 19.4066 46.8058 22.0374 48.0837 26.7142C49.2815 30.5912 50.8462 34.3456 52.7566 37.9268C52.7566 37.9268 54.9063 42.79 60.3802 38.6954C64.6123 35.5296 69.2711 24.5658 75.0244 24.433Z" fill="#F5C568"/>
<path d="M70.5082 43.6074L70.958 47.6151C70.5487 48.0293 70.1109 48.4145 69.648 48.768C63.1436 53.727 55.0397 49.3942 55.0397 49.3942L53.4803 35.498L68.4775 42.6403L70.5082 43.6074Z" fill="#E7A080"/>
<path d="M70.4953 43.492L70.958 47.6151C70.5487 48.0293 70.1109 48.4145 69.648 48.768C63.447 47.0858 58.4275 41.3516 58.4275 41.3516L68.4775 42.6402L70.4953 43.492Z" fill="#23221E"/>
<path d="M73.5339 25.2831C73.5339 25.2831 75.5132 22.3386 77.1042 24.884C78.6952 27.4291 78.3143 32.9833 74.7433 32.4805L73.5339 25.2831Z" fill="#E7A080"/>
<path d="M77.0255 34.4419C77.0255 34.4419 77.9674 42.7267 69.3286 43.673C60.7436 44.6163 54.14 38.5435 53.8008 38.2658L53.7905 38.2589L53.5011 36.5278L51.999 27.5433L51.1955 22.7413C51.1955 22.7413 49.1229 14.1645 57.2292 11.6522C63.1517 9.81613 68.9404 10.185 72.1582 13.0161C72.262 13.1075 72.3635 13.2017 72.46 13.2993C73.5273 14.3517 74.2535 15.6997 74.5444 17.1687L75.7862 25.8165L76.0906 27.9359L77.0255 34.4419Z" fill="#E7A080"/>
<path d="M70.1109 33.1276C71.2024 32.9423 72.2061 32.4137 72.9753 31.619C73.0067 31.5877 73.0316 31.5506 73.0486 31.5097C73.0656 31.4688 73.0743 31.425 73.0743 31.3807C73.0744 31.3365 73.0657 31.2927 73.0487 31.2518C73.0318 31.2109 73.0069 31.1737 72.9756 31.1424C72.9442 31.1111 72.907 31.0863 72.8661 31.0693C72.8251 31.0523 72.7812 31.0436 72.7368 31.0436C72.6925 31.0436 72.6486 31.0522 72.6076 31.0692C72.5666 31.0861 72.5294 31.1109 72.498 31.1421C69.2684 34.3621 64.7244 30.9607 64.679 30.9259C64.6078 30.872 64.5182 30.8485 64.4296 30.8605C64.3411 30.8724 64.2609 30.9189 64.2066 30.9898C64.1524 31.0606 64.1284 31.15 64.1401 31.2384C64.1517 31.3268 64.198 31.407 64.2687 31.4614C64.3065 31.4901 67.1526 33.6195 70.1109 33.1276Z" fill="#23221E"/>
<path d="M59.1443 21.0747C59.407 21.5169 59.8331 21.8386 60.331 21.9704C60.8289 22.1022 61.3587 22.0336 61.8064 21.7794C62.4058 21.4343 63.0365 21.1466 63.6903 20.9202C63.9232 20.8427 64.1378 20.7186 64.3211 20.5554C64.5043 20.3923 64.6523 20.1936 64.7559 19.9715C64.8596 19.7493 64.9168 19.5084 64.924 19.2635C64.9312 19.0185 64.8883 18.7747 64.7979 18.5469C64.7979 18.5469 60.7359 18.6284 59.1443 21.0747Z" fill="#F5C568"/>
<path d="M74.7627 19.3286C74.6046 19.8178 74.2603 20.2256 73.8039 20.464C73.3476 20.7024 72.8157 20.7525 72.3227 20.6034C71.6617 20.3991 70.9828 20.2578 70.295 20.1815C70.0507 20.1573 69.8138 20.0836 69.599 19.965C69.3841 19.8463 69.1958 19.6852 69.0454 19.4915C68.8951 19.2977 68.7859 19.0754 68.7246 18.8381C68.6633 18.6008 68.6511 18.3536 68.6888 18.1114C68.6888 18.1114 72.6683 17.2942 74.7627 19.3286Z" fill="#F5C568"/>
<path d="M55.8028 27.4662C55.8913 27.6643 55.9278 27.8816 55.909 28.0977C55.8901 28.3137 55.8165 28.5214 55.6951 28.7013C55.5737 28.8812 55.4085 29.0273 55.2149 29.1259C55.0214 29.2245 54.8059 29.2723 54.5887 29.265C53.5785 29.126 51.9989 27.5433 51.9989 27.5433L51.1955 22.7413C51.1955 22.7413 49.1229 14.1645 57.2291 11.6522C63.1517 9.81613 68.9404 10.185 72.1582 13.0161C72.262 13.1075 72.3635 13.2017 72.46 13.2993C71.0513 12.9719 70.1227 13.5267 68.1158 14.6882C65.2139 16.3668 61.8266 14.9766 58.4783 14.3431C55.6887 13.8154 54.3006 16.365 55.4862 17.6546C55.4862 17.6546 56.8302 18.9537 55.977 21.9945C55.1238 25.0354 55.1417 25.4568 55.8028 27.4662Z" fill="#F5C568"/>
<path d="M64.6408 28.1436C64.7085 28.7468 63.5183 29.3749 61.9823 29.5467C60.4464 29.7183 59.1466 29.3684 59.0788 28.7652C59.0111 28.1619 60.2014 27.5336 61.7372 27.362C63.2731 27.1903 64.5731 27.5403 64.6408 28.1436Z" fill="#E7A080"/>
<path d="M76.0908 27.9358C75.8788 27.9812 75.6548 28.017 75.4243 28.0428C73.8897 28.2143 72.5896 27.8638 72.522 27.2607C72.4542 26.6575 73.6445 26.0288 75.1791 25.8573C75.3868 25.834 75.5902 25.8208 75.7864 25.8164L76.0908 27.9358Z" fill="#E7A080"/>
<path d="M64.159 24.7667C64.2519 25.5952 63.9506 26.3091 63.4861 26.3609C63.0215 26.4129 62.5696 25.7833 62.4766 24.9547C62.3836 24.1262 62.6848 23.4123 63.1493 23.3604C63.6138 23.3085 64.0659 23.938 64.159 24.7667Z" fill="#23221E"/>
<path d="M72.5017 23.8331C72.5948 24.6616 72.2935 25.3754 71.8289 25.4273C71.3643 25.4793 70.9124 24.8496 70.8193 24.0211C70.7264 23.1926 71.0277 22.4787 71.4922 22.4268C71.9568 22.3749 72.4087 23.0044 72.5017 23.8331Z" fill="#23221E"/>
<path d="M56.126 34.6035C56.0971 34.6997 55.288 37.3516 53.7997 38.2681L53.7903 38.2606L53.5012 36.5294C54.5374 36.1414 55.4459 35.4749 56.126 34.6035Z" fill="#23221E"/>
<path d="M53.96 29.0179C53.96 29.0179 50.1408 24.9387 48.101 28.7076C46.4203 31.8133 51.0522 38.8998 54.7305 35.8834L53.96 29.0179Z" fill="#E7A080"/>
<path d="M54.1257 34.5946C54.0416 34.6039 53.9571 34.5819 53.8882 34.5329C53.8193 34.4838 53.771 34.4112 53.7524 34.3288C53.5378 33.3532 53.0713 32.4505 52.3992 31.7102C51.7271 30.97 50.8729 30.418 49.9211 30.1089C49.8335 30.0844 49.7593 30.0263 49.7146 29.9474C49.6699 29.8684 49.6583 29.775 49.6825 29.6875C49.7066 29.6001 49.7644 29.5257 49.8434 29.4807C49.9223 29.4357 50.0158 29.4238 50.1036 29.4474C51.1755 29.7899 52.1385 30.4071 52.8966 31.2373C53.6546 32.0676 54.181 33.0818 54.4233 34.1787C54.4433 34.2675 54.4271 34.3605 54.3783 34.4374C54.3295 34.5142 54.2521 34.5686 54.1631 34.5885C54.1508 34.5912 54.1383 34.5932 54.1257 34.5946Z" fill="#23221E"/>
<path d="M50.707 32.8838C50.6365 32.8918 50.5652 32.8778 50.503 32.8437C50.4407 32.8096 50.3906 32.7571 50.3595 32.6934C50.3284 32.6297 50.3178 32.558 50.3292 32.4881C50.3405 32.4181 50.3733 32.3534 50.423 32.3029C50.547 32.177 51.6641 31.0775 52.719 31.2244C52.7639 31.2305 52.8071 31.2453 52.8462 31.2681C52.8853 31.2909 52.9195 31.3211 52.9468 31.3571C52.9741 31.3931 52.9941 31.4342 53.0055 31.4779C53.0169 31.5216 53.0196 31.5671 53.0133 31.6118C53.007 31.6566 52.992 31.6996 52.969 31.7385C52.946 31.7774 52.9156 31.8114 52.8794 31.8386C52.8432 31.8657 52.802 31.8854 52.7582 31.8967C52.7143 31.9079 52.6687 31.9103 52.6239 31.9039C52.0172 31.819 51.1835 32.5103 50.9133 32.7838C50.8581 32.8398 50.7852 32.8751 50.707 32.8838Z" fill="#23221E"/>
<path d="M68.2972 28.5589C68.2523 28.5639 68.2069 28.56 68.1635 28.5475C68.1202 28.535 68.0797 28.5141 68.0444 28.486C68.0091 28.4579 67.9797 28.4231 67.9579 28.3836C67.9361 28.3442 67.9223 28.3008 67.9173 28.2561C67.9123 28.2113 67.9161 28.166 67.9287 28.1227C67.9412 28.0794 67.9622 28.039 67.9903 28.0038C68.0185 27.9686 68.0534 27.9393 68.0929 27.9175C68.1324 27.8957 68.1759 27.8819 68.2207 27.8769C68.6158 27.8579 68.9997 27.7402 69.3373 27.5346C69.6749 27.3291 69.9554 27.0422 70.1532 26.7004C68.4761 24.0493 66.8053 21.376 66.7883 21.3488C66.7644 21.3106 66.7483 21.2681 66.7408 21.2236C66.7334 21.1792 66.7349 21.1337 66.7451 21.0898C66.7552 21.0459 66.774 21.0045 66.8002 20.9678C66.8265 20.9312 66.8597 20.9 66.898 20.8762C66.9363 20.8524 66.979 20.8363 67.0235 20.8289C67.068 20.8215 67.1136 20.8229 67.1575 20.8331C67.2015 20.8432 67.2431 20.862 67.2798 20.8882C67.3165 20.9143 67.3477 20.9475 67.3716 20.9857C67.3889 21.0134 69.1243 23.79 70.8327 26.4893C70.86 26.5325 70.8773 26.5811 70.8833 26.6317C70.8894 26.6823 70.884 26.7337 70.8677 26.782C70.6504 27.2897 70.2939 27.7258 69.8391 28.0402C69.3843 28.3546 68.8499 28.5343 68.2972 28.5589Z" fill="#23221E"/>
<path d="M60.5147 111.493C60.5147 111.493 70.1892 105.113 67.45 102.231C64.711 99.3497 60.5147 111.493 60.5147 111.493Z" fill="#6B8429"/>
<path d="M57.7714 115.43C57.8331 115.456 57.9017 115.46 57.966 115.442C58.0304 115.423 58.0868 115.384 58.1261 115.33L64.3687 106.781C64.4152 106.717 64.4344 106.638 64.4222 106.56C64.4099 106.482 64.3672 106.412 64.3033 106.366C64.2395 106.319 64.1598 106.3 64.0818 106.312C64.0037 106.324 63.9338 106.367 63.8872 106.431L57.6447 114.98C57.6182 115.017 57.6003 115.059 57.5923 115.103C57.5844 115.147 57.5866 115.193 57.5987 115.236C57.6109 115.279 57.6328 115.319 57.6627 115.353C57.6926 115.386 57.7297 115.413 57.7714 115.43Z" fill="#3F4F0C"/>
<path d="M60.6612 110.915C60.6612 110.915 64.0054 99.8341 60.0529 99.3687C56.1004 98.9032 60.6612 110.915 60.6612 110.915Z" fill="#6B8429"/>
<path d="M60.6009 111.45C60.6476 111.47 60.6986 111.477 60.7488 111.471C60.7991 111.465 60.8471 111.447 60.8882 111.417C60.9294 111.388 60.9623 111.349 60.984 111.303C61.0057 111.257 61.0153 111.207 61.0121 111.157L60.6022 104.833C60.5971 104.754 60.5609 104.681 60.5015 104.629C60.4721 104.603 60.4379 104.583 60.4009 104.571C60.3639 104.558 60.3247 104.553 60.2857 104.555C60.2467 104.558 60.2085 104.568 60.1734 104.585C60.1384 104.602 60.107 104.626 60.0812 104.656C60.0554 104.685 60.0356 104.719 60.023 104.756C60.0104 104.793 60.0052 104.832 60.0077 104.871L60.4176 111.195C60.4212 111.25 60.4403 111.304 60.4727 111.349C60.505 111.394 60.5495 111.429 60.6009 111.45Z" fill="#3F4F0C"/>
<path d="M48.24 114.327L48.2412 114.329C48.9185 115.584 50.0676 116.519 51.4355 116.928C52.8035 117.338 54.2784 117.188 55.5357 116.512C56.793 115.836 57.7299 114.69 58.1402 113.324C58.5504 111.959 58.4006 110.487 57.7235 109.233C57.0464 107.978 55.8976 107.043 54.5297 106.633C53.1619 106.223 51.687 106.373 50.4295 107.048C49.172 107.724 48.2349 108.87 47.8243 110.235C47.4137 111.6 47.5632 113.072 48.24 114.327Z" fill="#E7A743"/>
<path d="M48.2415 114.328C47.4266 115.66 46.9941 117.189 46.9912 118.749C46.9884 120.309 47.4153 121.84 48.2253 123.174C49.0353 124.509 50.1973 125.595 51.5842 126.315C52.9712 127.035 54.5297 127.36 56.0895 127.256C57.6493 127.152 59.1503 126.621 60.4286 125.723C61.7068 124.825 62.7131 123.594 63.3374 122.163C63.9617 120.733 64.18 119.159 63.9684 117.613C63.7569 116.067 63.1237 114.609 62.138 113.398C62.2162 113.572 64.2551 117.651 59.7189 120.559C55.1003 123.52 48.442 118.567 48.2415 114.328Z" fill="#CC861E"/>
<path d="M43.0118 110.837C43.0118 110.837 52.6862 104.457 49.9471 101.575C47.2081 98.6935 43.0118 110.837 43.0118 110.837Z" fill="#6B8429"/>
<path d="M40.2685 114.774C40.3303 114.799 40.3988 114.803 40.4631 114.785C40.5275 114.767 40.5838 114.728 40.6232 114.674L46.8657 106.125C46.9122 106.061 46.9315 105.981 46.9192 105.903C46.907 105.826 46.8643 105.756 46.8004 105.709C46.7366 105.663 46.6569 105.644 46.5788 105.656C46.5008 105.668 46.4308 105.711 46.3843 105.775L40.1418 114.324C40.1152 114.36 40.0972 114.402 40.0893 114.447C40.0813 114.491 40.0835 114.536 40.0957 114.58C40.1079 114.623 40.1298 114.663 40.1597 114.697C40.1897 114.73 40.2269 114.757 40.2685 114.774Z" fill="#3F4F0C"/>
<path d="M43.1582 110.257C43.1582 110.257 46.5024 99.1758 42.55 98.7105C38.5975 98.2449 43.1582 110.257 43.1582 110.257Z" fill="#6B8429"/>
<path d="M43.0979 110.794C43.1447 110.813 43.1956 110.82 43.2459 110.814C43.2962 110.808 43.3441 110.79 43.3853 110.761C43.4264 110.731 43.4594 110.692 43.4811 110.646C43.5027 110.6 43.5124 110.55 43.5092 110.5L43.0993 104.176C43.0969 104.137 43.0869 104.099 43.0697 104.063C43.0524 104.028 43.0284 103.997 42.999 103.971C42.9696 103.945 42.9354 103.925 42.8982 103.912C42.8611 103.9 42.8218 103.895 42.7827 103.897C42.7436 103.9 42.7053 103.91 42.6701 103.927C42.635 103.945 42.6036 103.969 42.5777 103.998C42.5519 104.028 42.5322 104.062 42.5197 104.099C42.5071 104.136 42.5021 104.175 42.5048 104.214L42.9147 110.538C42.9183 110.594 42.9373 110.647 42.9697 110.692C43.0021 110.737 43.0465 110.772 43.0979 110.794Z" fill="#3F4F0C"/>
<path d="M30.7369 113.668L30.7382 113.67C31.4791 114.902 32.6799 115.789 34.0765 116.138C35.4731 116.486 36.9511 116.266 38.1854 115.527C39.4197 114.788 40.3092 113.589 40.6583 112.196C41.0074 110.802 40.7874 109.327 40.0467 108.095C39.3061 106.863 38.1055 105.975 36.709 105.627C35.3124 105.278 33.8344 105.498 32.5999 106.237C31.3654 106.975 30.4757 108.174 30.1263 109.567C29.7769 110.961 29.9965 112.436 30.7369 113.668Z" fill="#E7A743"/>
<path d="M30.7377 113.672C29.9227 115.003 29.4901 116.533 29.4873 118.093C29.4844 119.653 29.9113 121.184 30.7213 122.518C31.5313 123.853 32.6933 124.939 34.0803 125.659C35.4672 126.379 37.0258 126.704 38.5856 126.6C40.1454 126.496 41.6464 125.965 42.9247 125.067C44.2029 124.169 45.2092 122.937 45.8335 121.507C46.4578 120.077 46.6761 118.503 46.4645 116.957C46.253 115.411 45.6197 113.953 44.634 112.742C44.7122 112.916 46.7511 116.995 42.2149 119.903C37.5964 122.863 30.9381 117.91 30.7377 113.672Z" fill="#CC861E"/>
<path d="M25.8194 109.673C25.8194 109.673 35.4938 103.292 32.7547 100.411C30.0156 97.5293 25.8194 109.673 25.8194 109.673Z" fill="#6B8429"/>
<path d="M23.0761 113.61C23.1379 113.635 23.2064 113.639 23.2707 113.621C23.3351 113.603 23.3914 113.564 23.4308 113.51L29.6733 104.961C29.7198 104.897 29.7391 104.817 29.7269 104.739C29.7146 104.662 29.6719 104.592 29.6081 104.545C29.5442 104.499 29.4645 104.48 29.3865 104.492C29.3084 104.504 29.2384 104.547 29.1919 104.61L22.9494 113.16C22.9228 113.196 22.9049 113.238 22.8969 113.282C22.889 113.327 22.8912 113.372 22.9034 113.416C22.9156 113.459 22.9375 113.499 22.9674 113.533C22.9973 113.566 23.0345 113.593 23.0761 113.61Z" fill="#3F4F0C"/>
<path d="M25.9659 109.093C25.9659 109.093 29.3101 98.0118 25.3575 97.5464C21.4052 97.0809 25.9659 109.093 25.9659 109.093Z" fill="#6B8429"/>
<path d="M25.9056 109.628C25.9523 109.647 26.0032 109.654 26.0535 109.648C26.1038 109.642 26.1518 109.624 26.1929 109.595C26.234 109.565 26.267 109.526 26.2887 109.48C26.3104 109.434 26.32 109.384 26.3168 109.334L25.9069 103.01C25.9046 102.971 25.8945 102.933 25.8773 102.897C25.8601 102.862 25.8361 102.831 25.8067 102.805C25.7772 102.779 25.743 102.759 25.7059 102.746C25.6687 102.734 25.6295 102.729 25.5903 102.731C25.5512 102.734 25.5129 102.744 25.4777 102.761C25.4426 102.778 25.4112 102.803 25.3854 102.832C25.3595 102.862 25.3398 102.896 25.3273 102.933C25.3148 102.97 25.3097 103.009 25.3124 103.048L25.7223 109.372C25.7259 109.428 25.7449 109.481 25.7773 109.526C25.8097 109.571 25.8541 109.606 25.9056 109.628Z" fill="#3F4F0C"/>
<path d="M13.5453 112.505L13.5465 112.508C14.2639 113.748 15.4455 114.653 16.8315 115.024C18.2175 115.395 19.6943 115.201 20.9372 114.485C22.18 113.769 23.0871 112.59 23.4588 111.207C23.8306 109.824 23.6366 108.35 22.9195 107.11C22.2024 105.869 21.021 104.964 19.6351 104.593C18.2492 104.222 16.7723 104.415 15.5293 105.13C14.2863 105.846 13.379 107.025 13.0069 108.408C12.6348 109.791 12.8285 111.265 13.5453 112.505Z" fill="#E7A743"/>
<path d="M13.5463 112.506C12.7314 113.837 12.2988 115.367 12.2959 116.927C12.2931 118.487 12.72 120.018 13.53 121.352C14.34 122.686 15.502 123.773 16.8889 124.493C18.2759 125.213 19.8344 125.538 21.3942 125.434C22.954 125.329 24.455 124.799 25.7333 123.901C27.0115 123.003 28.0178 121.771 28.6421 120.341C29.2664 118.911 29.4847 117.337 29.2731 115.791C29.0616 114.245 28.4284 112.787 27.4426 111.576C27.5208 111.75 29.5597 115.829 25.0236 118.737C20.405 121.697 13.7467 116.744 13.5463 112.506Z" fill="#CC861E"/>
<path d="M9.98776 117.531V143.909C9.98711 145.672 10.3345 147.417 11.01 149.046C11.6856 150.674 12.6761 152.154 13.925 153.4C15.1738 154.646 16.6565 155.635 18.2883 156.309C19.9202 156.983 21.6691 157.33 23.4352 157.329H53.0867C55.2595 157.33 57.4003 156.806 59.3254 155.8C61.2505 154.795 62.9025 153.338 64.1399 151.556C65.701 149.311 66.5365 146.642 66.5342 143.909V117.531H9.98776Z" fill="#B4512A"/>
<path d="M9.98671 123.305H66.5332V124.846H9.98671V123.305Z" fill="#842A2A"/>
<path d="M9.98671 132.207H66.5332V133.748H9.98671V132.207Z" fill="#842A2A"/>
<path d="M9.98671 141.109H66.5332V142.65H9.98671V141.109Z" fill="#842A2A"/>
<path d="M11.4568 150.016C11.7296 150.55 12.0385 151.064 12.3812 151.556H64.1391C64.4819 151.064 64.7907 150.55 65.0635 150.016H11.4568Z" fill="#842A2A"/>
<path d="M29.4765 63.8157L28.8827 64.2295L28.3496 64.6103L27.3121 65.3663C26.6287 65.8707 25.9537 66.3787 25.2871 66.8903C23.9517 67.9152 22.6358 68.9624 21.3394 70.032C18.743 72.1747 16.2079 74.4189 13.7431 76.8248C11.1939 79.2866 8.8168 81.9199 6.62849 84.7061C5.45592 86.2099 4.37438 87.7823 3.38966 89.4148C2.8801 90.2688 2.38857 91.1625 1.92664 92.1117C1.6952 92.585 1.47329 93.0777 1.25893 93.5802L0.930695 94.3921C0.822056 94.6779 0.72105 94.9665 0.627686 95.2578C0.552513 95.5124 0.489449 95.7531 0.42672 96.0031L0.381325 96.1892L0.348118 96.3504L0.28495 96.6729L0.225834 96.9959C0.207642 97.1017 0.196991 97.1892 0.182831 97.2868L0.108692 97.8579L0.0627861 98.3736L0.0421906 98.6315L0.030262 98.8681L0.00949478 99.3411C0.00271225 99.6399 -0.000888824 99.9347 0.000312805 100.221C0.0112991 101.346 0.0855255 102.343 0.18121 103.299C0.375832 105.203 0.666821 106.929 0.984158 108.628C1.62947 112.005 2.4113 115.204 3.24626 118.37C4.08371 121.53 4.98131 124.639 5.91924 127.728C6.38838 129.272 6.86828 130.811 7.35893 132.345L8.10413 134.647L8.88099 136.981C9.48501 138.795 10.7787 140.301 12.4837 141.173C14.1886 142.045 16.1685 142.214 17.9972 141.644C19.8259 141.074 21.3572 139.81 22.2616 138.124C23.1659 136.439 23.371 134.466 22.8327 132.631L22.7923 132.495L22.1488 130.317L21.5125 128.096C21.0933 126.612 20.6847 125.126 20.2867 123.637C19.4922 120.661 18.7417 117.682 18.0641 114.721C17.3892 111.764 16.7795 108.809 16.3389 105.973C16.124 104.565 15.9456 103.171 15.8658 101.933C15.8252 101.319 15.8099 100.74 15.8246 100.289L15.8408 99.9868L15.853 99.8696L15.8577 99.811L15.8651 99.7747C15.8696 99.7505 15.873 99.7262 15.8754 99.7019C15.8792 99.6978 15.8822 99.693 15.8843 99.6877C15.8843 99.6877 15.885 99.6774 15.8852 99.6863C15.8854 99.6974 15.8849 99.7085 15.8837 99.7195C15.8826 99.7304 15.8808 99.7413 15.8782 99.752L15.874 99.7682L15.8669 99.8116C15.8557 99.8709 15.8403 99.9293 15.8208 99.9864C15.7937 100.092 15.7588 100.195 15.7162 100.295C15.6982 100.336 15.7111 100.309 15.717 100.297L15.7364 100.257L15.7749 100.178L15.8505 100.019C15.9599 99.8025 16.0735 99.5814 16.2023 99.3532C16.4572 98.8977 16.7516 98.4224 17.0769 97.9384C17.7816 96.906 18.546 95.9154 19.3661 94.9716C21.1934 92.8869 23.1598 90.9278 25.2518 89.1077C27.4048 87.2094 29.6958 85.3751 32.0625 83.6161C33.2455 82.7366 34.4453 81.8772 35.662 81.0378C36.2686 80.619 36.8767 80.2078 37.4864 79.804L38.3945 79.2104L38.8402 78.9251L39.0558 78.7893L39.1576 78.7259C39.1858 78.7087 39.2312 78.6818 39.2312 78.6818C41.2617 77.4752 42.7288 75.5129 43.3097 73.2268C43.8905 70.9406 43.5375 68.5179 42.3284 66.4914C41.1193 64.465 39.153 63.0009 36.8622 62.4212C34.5714 61.8416 32.1437 62.1938 30.1131 63.4005C29.9328 63.5076 29.7577 63.62 29.5878 63.7376L29.4765 63.8157Z" fill="#E7A080"/>
<path d="M15.4473 100.396C15.5403 100.396 15.6309 100.366 15.7054 100.31C15.7798 100.254 15.8341 100.176 15.86 100.087C15.8859 99.9975 15.882 99.9024 15.849 99.8155C15.816 99.7287 15.7556 99.655 15.6769 99.6054C15.5214 99.5075 11.8365 97.202 8.7775 96.7659C8.665 96.7501 8.55081 96.7795 8.45999 96.8476C8.36917 96.9157 8.30913 97.017 8.29304 97.1292C8.27695 97.2415 8.30613 97.3555 8.37417 97.4463C8.44221 97.5371 8.54357 97.5972 8.65599 97.6135C11.5354 98.0241 15.182 100.306 15.2185 100.33C15.287 100.373 15.3663 100.396 15.4473 100.396Z" fill="#E7A080"/>
<path d="M14.6154 99.7832C14.6887 99.7831 14.7607 99.7643 14.8246 99.7286C14.8885 99.6928 14.9422 99.6413 14.9806 99.579C15.0189 99.5167 15.0406 99.4456 15.0436 99.3725C15.0466 99.2995 15.0308 99.2269 14.9977 99.1616C14.3522 97.8216 13.5522 96.5614 12.614 95.4066C12.5387 95.3214 12.4326 95.2696 12.319 95.2626C12.2055 95.2555 12.0937 95.2937 12.0084 95.3688C11.9231 95.444 11.8712 95.5499 11.8641 95.6632C11.857 95.7765 11.8953 95.888 11.9706 95.9731C12.8574 97.0758 13.6161 98.2752 14.2322 99.5484C14.268 99.6191 14.3228 99.6785 14.3905 99.7199C14.4581 99.7614 14.536 99.7833 14.6154 99.7832Z" fill="#E7A080"/>
<path d="M34.2353 58.0379C35.4308 57.7549 36.6798 57.7914 37.8566 58.1437C39.0334 58.496 40.0964 59.1516 40.9384 60.0444C45.2217 64.6117 46.5823 75.7311 40.9595 80.4548C31.3805 88.5021 24.368 91.7305 24.368 91.7305L13.4411 73.9821C13.4411 73.9821 24.6529 64.318 34.2353 58.0379Z" fill="white"/>
<path d="M29.339 89.3726C29.423 89.3726 29.5051 89.3479 29.5751 89.3017L41.9109 81.1684C41.9579 81.1374 41.9984 81.0975 42.0299 81.0509C42.0615 81.0043 42.0835 80.9519 42.0948 80.8968C42.1061 80.8417 42.1064 80.7849 42.0957 80.7297C42.085 80.6745 42.0635 80.6219 42.0324 80.575C42.0014 80.5281 41.9614 80.4877 41.9147 80.4562C41.868 80.4248 41.8155 80.4027 41.7603 80.3915C41.7051 80.3802 41.6482 80.3799 41.5929 80.3906C41.5375 80.4013 41.4849 80.4228 41.4378 80.4538L29.1021 88.5871C29.0251 88.6379 28.9665 88.7121 28.9351 88.7987C28.9037 88.8853 28.9011 88.9797 28.9277 89.0678C28.9543 89.156 29.0087 89.2333 29.0828 89.2882C29.1569 89.3431 29.2467 89.3727 29.339 89.3726Z" fill="#E7E7CF"/>
<path d="M41.675 84.2367C41.787 84.2362 41.8944 84.1921 41.9742 84.1137C42.054 84.0353 42.0999 83.9289 42.1022 83.8172C42.1045 83.7054 42.0629 83.5972 41.9863 83.5157C41.9097 83.4342 41.8042 83.3857 41.6923 83.3807L37.4124 83.2053C37.2995 83.2019 37.1898 83.2431 37.1071 83.3199C37.0244 83.3968 36.9754 83.503 36.9708 83.6157C36.9662 83.7284 37.0062 83.8383 37.0823 83.9217C37.1584 84.005 37.2644 84.055 37.3772 84.0609L41.6571 84.2363L41.675 84.2367Z" fill="#E7E7CF"/>
<path d="M8.76136 135.627C10.4903 138.895 11.88 142.33 12.909 145.881C16.4201 157.127 21.0711 160.854 22.7227 162.07C24.6834 163.511 26.6694 161.746 26.6694 161.746C27.2471 162.015 27.8977 162.087 28.5206 161.951C29.1434 161.814 29.704 161.477 30.1155 160.991C33.4014 162.411 34.4568 160.261 34.4568 160.261C34.4568 160.261 36.9866 163.036 38.5945 161.233C40.2042 159.433 35.9771 156.371 34.8273 153.687C34.7725 153.56 34.7175 153.425 34.6623 153.276C36.238 154.419 38.3108 155.567 39.7213 155.01C42.2826 153.996 31.9639 145.334 31.9639 145.334C30.595 143.561 28.9399 142.028 27.0666 140.798C25.9684 140.061 25.3331 137.98 24.6224 137.038L21.5022 129.125L8.76136 135.627Z" fill="#E7A743"/>
<path d="M7.3621 135.249C7.40495 135.996 7.60645 136.727 7.95328 137.391C8.30011 138.055 8.78436 138.639 9.37398 139.102C10.3431 139.922 24.3672 132.644 24.3672 132.644C24.3672 132.644 24.3672 129.747 22.4195 128.154C22.4195 128.154 14.1108 131.83 7.3621 135.249Z" fill="#CC861E"/>
</g>
<defs>
<clipPath id="clip0_183_3671">
<rect width="141" height="335" fill="white" transform="matrix(-1 0 0 1 141 0)"/>
</clipPath>
</defs>
</svg>
