<svg width="173" height="242" viewBox="0 0 173 242" fill="none" xmlns="http://www.w3.org/2000/svg">
<g clip-path="url(#clip0_183_3215)">
<path d="M139.184 69.7605C139.296 69.7605 139.359 69.7583 139.376 69.7576C139.425 69.7555 139.474 69.7417 139.518 69.7172C139.561 69.6927 139.598 69.6583 139.626 69.6168C144.774 61.9006 146.695 48.5766 144.094 38.6243C143.234 35.3343 141.944 32.5763 140.278 30.4288C138.927 26.5958 137.172 22.9169 135.043 19.4539C134.999 19.3823 134.929 19.3311 134.847 19.3115C134.765 19.2919 134.679 19.3055 134.607 19.3494C134.536 19.3933 134.484 19.4638 134.465 19.5455C134.445 19.6272 134.459 19.7133 134.503 19.7849C136.317 22.7393 137.859 25.8523 139.11 29.0857C138.108 28.0502 136.943 27.1854 135.661 26.5255C135.586 26.4874 135.5 26.4806 135.42 26.5065C135.34 26.5324 135.273 26.5889 135.235 26.6636C135.197 26.7384 135.19 26.8252 135.216 26.9051C135.242 26.9849 135.298 27.0513 135.373 27.0896C137.07 27.9752 138.553 29.2213 139.718 30.7406C142.751 39.4334 143.32 48.2206 141.089 55.2794C139.226 61.168 135.541 65.4503 130.43 67.6633C130.37 67.6893 130.319 67.7333 130.285 67.7893C130.251 67.8453 130.235 67.9105 130.239 67.9759C130.244 68.0413 130.269 68.1036 130.31 68.1544C130.352 68.2051 130.408 68.2417 130.471 68.2592C135.528 69.6567 138.434 69.7605 139.184 69.7605ZM140.993 32.6132C142.104 34.5453 142.941 36.6221 143.481 38.7842C146.025 48.5202 144.179 61.5243 139.191 69.1261C138.544 69.1235 135.933 69.0319 131.484 67.8752C136.353 65.4982 139.873 61.2272 141.693 55.4703C143.786 48.8503 143.464 40.7478 140.993 32.6132Z" fill="#2B1710"/>
<path d="M119.765 10.3935C119.831 10.3936 119.896 10.373 119.949 10.3347C120.003 10.2963 120.044 10.2421 120.065 10.1796C120.087 10.1171 120.088 10.0495 120.069 9.98622C120.05 9.92292 120.012 9.86711 119.96 9.82661C110.574 2.54633 93.1709 -4.94024 83.6988 4.27269C83.6386 4.33126 83.6041 4.41135 83.6029 4.49534C83.6018 4.57933 83.634 4.66034 83.6926 4.72055C83.7513 4.78076 83.8314 4.81524 83.9155 4.8164C83.9995 4.81756 84.0806 4.78531 84.1409 4.72674C93.3253 -4.2055 110.361 3.18257 119.571 10.3271C119.626 10.3702 119.695 10.3936 119.765 10.3935Z" fill="#2B1710"/>
<path d="M79.0016 32.8993C82.4249 32.8994 84.3945 31.6625 85.5194 30.3647C87.8663 27.6566 87.8852 23.0117 85.5689 18.2425C85.5322 18.167 85.4669 18.1092 85.3876 18.0818C85.3082 18.0544 85.2212 18.0595 85.1456 18.0962C85.07 18.1328 85.0121 18.1979 84.9846 18.2772C84.9571 18.3565 84.9621 18.4435 84.9987 18.519C87.2024 23.0566 87.2185 27.4367 85.0402 29.9499C83.4476 31.7878 79.9755 33.4778 72.4805 31.0922C66.8666 29.305 62.1068 25.7147 57.5036 22.2425C50.5113 16.9677 43.9056 11.9863 34.7636 13.1089C34.6803 13.1193 34.6045 13.1623 34.5529 13.2285C34.5013 13.2947 34.478 13.3786 34.4883 13.4619C34.4985 13.5452 34.5414 13.621 34.6075 13.6727C34.6737 13.7244 34.7576 13.7478 34.841 13.7377C43.728 12.6457 50.2339 17.5528 57.1216 22.7481C61.7672 26.2523 66.571 29.8757 72.288 31.6956C74.9884 32.5553 77.1973 32.8991 79.0016 32.8993Z" fill="#2B1710"/>
<path d="M129.44 66.8384C148.789 53.2056 146.556 10.3242 121.005 10.3242C103.145 -1.32565 82.3072 2.64025 83.0514 12.8029C83.7956 22.9656 92.974 22.4698 89.9972 29.9059C87.0205 37.342 71.3924 37.342 50.0587 22.7177C28.7251 8.09338 13.8412 20.239 14.0893 26.4357C2.67831 26.6836 1.93411 36.8462 2.92639 38.5813C-5.25977 54.9407 5.40703 74.7703 14.3374 78.2404C6.64735 88.8988 26.9887 106.002 42.8649 106.993C58.741 107.985 88.5088 108.728 92.2298 104.762C95.9508 100.797 129.44 66.8384 129.44 66.8384Z" fill="#2B1710"/>
<path d="M77.0975 89.5199L68.1672 104.764L91.2372 107.243L91.7334 88.1567L89.2527 85.9258L77.0975 89.5199Z" fill="#F4AA87"/>
<path d="M150.856 158.055C170.701 183.173 175.332 209.281 172.024 242H70.4829C68.8291 198.706 83.713 165.656 83.713 165.656L105.874 146.818L129.688 151.445L150.856 158.055Z" fill="#2B6092"/>
<path d="M164.057 237.498C164.067 237.498 164.077 237.497 164.087 237.497C164.254 237.489 164.412 237.415 164.526 237.291C164.639 237.167 164.698 237.003 164.691 236.835C164.636 235.65 164.557 234.146 164.444 232.384C164.433 232.216 164.356 232.059 164.23 231.948C164.104 231.837 163.939 231.781 163.771 231.792C163.603 231.803 163.446 231.88 163.335 232.006C163.224 232.132 163.168 232.297 163.179 232.465C163.291 234.218 163.37 235.714 163.424 236.893C163.432 237.056 163.502 237.209 163.619 237.322C163.737 237.434 163.894 237.497 164.057 237.498ZM163.49 228.626C163.507 228.626 163.524 228.626 163.542 228.624C163.625 228.618 163.706 228.595 163.78 228.557C163.854 228.519 163.92 228.467 163.974 228.404C164.028 228.34 164.069 228.267 164.094 228.188C164.12 228.109 164.129 228.025 164.123 227.942C164.011 226.55 163.881 225.066 163.731 223.507C163.715 223.34 163.633 223.186 163.503 223.08C163.373 222.973 163.206 222.922 163.039 222.938C162.872 222.955 162.718 223.036 162.611 223.166C162.504 223.295 162.453 223.462 162.469 223.629C162.618 225.18 162.747 226.657 162.859 228.044C162.872 228.202 162.944 228.35 163.061 228.458C163.178 228.566 163.331 228.626 163.49 228.626ZM162.637 219.784C162.661 219.784 162.685 219.782 162.709 219.78C162.791 219.77 162.872 219.745 162.944 219.705C163.017 219.664 163.082 219.61 163.133 219.545C163.185 219.48 163.224 219.405 163.247 219.325C163.27 219.246 163.277 219.162 163.268 219.079C163.106 217.645 162.927 216.168 162.73 214.659C162.72 214.577 162.693 214.497 162.651 214.425C162.61 214.353 162.554 214.29 162.488 214.239C162.422 214.188 162.347 214.151 162.267 214.129C162.186 214.108 162.102 214.102 162.02 214.113C161.937 214.124 161.858 214.151 161.785 214.192C161.713 214.234 161.65 214.289 161.599 214.355C161.548 214.421 161.511 214.496 161.49 214.576C161.468 214.657 161.462 214.741 161.473 214.823C161.669 216.325 161.847 217.794 162.008 219.221C162.025 219.376 162.099 219.518 162.215 219.622C162.331 219.726 162.481 219.783 162.637 219.784ZM161.484 210.976C161.576 210.976 161.666 210.957 161.749 210.919C161.832 210.881 161.906 210.825 161.965 210.756C162.025 210.687 162.069 210.606 162.094 210.519C162.12 210.431 162.126 210.339 162.113 210.249C161.891 208.769 161.654 207.29 161.408 205.851C161.38 205.685 161.287 205.538 161.15 205.441C161.013 205.344 160.842 205.305 160.677 205.333C160.511 205.362 160.363 205.455 160.266 205.592C160.169 205.729 160.13 205.899 160.158 206.064C160.403 207.494 160.639 208.965 160.858 210.436C160.881 210.586 160.956 210.723 161.071 210.822C161.186 210.922 161.333 210.976 161.484 210.976ZM159.984 202.223C160.025 202.223 160.066 202.219 160.106 202.211C160.188 202.195 160.266 202.163 160.335 202.117C160.404 202.071 160.464 202.012 160.511 201.943C160.557 201.874 160.59 201.797 160.606 201.715C160.623 201.634 160.623 201.55 160.607 201.468C160.319 199.987 160.013 198.518 159.698 197.102C159.681 197.021 159.647 196.944 159.599 196.875C159.551 196.807 159.49 196.749 159.42 196.704C159.35 196.659 159.272 196.629 159.19 196.614C159.107 196.6 159.023 196.602 158.942 196.62C158.861 196.638 158.784 196.672 158.715 196.72C158.647 196.767 158.589 196.828 158.544 196.899C158.5 196.969 158.469 197.047 158.455 197.129C158.441 197.211 158.443 197.295 158.461 197.377C158.773 198.782 159.077 200.24 159.363 201.71C159.391 201.854 159.468 201.984 159.582 202.078C159.695 202.171 159.837 202.223 159.984 202.223ZM158.053 193.556C158.149 193.556 158.245 193.534 158.332 193.491C158.418 193.449 158.494 193.387 158.553 193.311C158.613 193.235 158.654 193.146 158.674 193.052C158.693 192.958 158.691 192.86 158.668 192.766C158.292 191.288 157.896 189.839 157.493 188.461C157.446 188.3 157.336 188.164 157.189 188.083C157.041 188.002 156.868 187.984 156.706 188.031C156.545 188.078 156.409 188.187 156.328 188.335C156.247 188.482 156.229 188.655 156.276 188.817C156.675 190.18 157.066 191.614 157.439 193.078C157.474 193.215 157.553 193.336 157.664 193.422C157.775 193.509 157.912 193.556 158.053 193.556ZM155.549 185.038C155.65 185.038 155.749 185.014 155.839 184.968C155.928 184.922 156.006 184.855 156.064 184.774C156.123 184.692 156.161 184.597 156.176 184.498C156.191 184.398 156.182 184.296 156.15 184.201C155.654 182.743 155.133 181.331 154.601 180.005C154.539 179.849 154.417 179.724 154.262 179.658C154.108 179.592 153.933 179.59 153.777 179.652C153.621 179.714 153.496 179.836 153.43 179.991C153.364 180.145 153.362 180.319 153.424 180.475C153.947 181.781 154.46 183.172 154.949 184.609C154.992 184.734 155.073 184.843 155.18 184.92C155.288 184.997 155.417 185.038 155.549 185.038ZM152.23 176.809C152.337 176.809 152.443 176.782 152.537 176.73C152.63 176.678 152.709 176.603 152.767 176.513C152.824 176.422 152.857 176.318 152.863 176.211C152.869 176.104 152.847 175.998 152.801 175.901C152.244 174.745 151.663 173.638 151.075 172.613C151.009 172.497 150.908 172.406 150.787 172.351C150.667 172.296 150.531 172.28 150.401 172.306L149.65 172.454C149.568 172.47 149.49 172.502 149.42 172.548C149.351 172.593 149.291 172.653 149.244 172.722C149.198 172.791 149.165 172.868 149.148 172.95C149.132 173.031 149.131 173.115 149.147 173.197C149.163 173.279 149.195 173.357 149.241 173.426C149.287 173.495 149.346 173.555 149.415 173.602C149.484 173.648 149.562 173.681 149.644 173.697C149.725 173.714 149.809 173.714 149.891 173.698L150.199 173.637C150.695 174.524 151.185 175.469 151.659 176.451C151.71 176.558 151.791 176.649 151.893 176.712C151.994 176.776 152.111 176.809 152.23 176.809ZM143.596 174.432C144.19 174.432 144.791 174.407 145.434 174.355C145.601 174.342 145.757 174.262 145.866 174.134C145.975 174.006 146.028 173.84 146.015 173.673C146.001 173.505 145.922 173.35 145.794 173.241C145.666 173.132 145.5 173.079 145.332 173.092C143.906 173.223 142.47 173.186 141.053 172.98C140.887 172.955 140.718 172.997 140.583 173.097C140.448 173.196 140.358 173.345 140.333 173.511C140.307 173.677 140.349 173.846 140.448 173.981C140.548 174.117 140.697 174.207 140.862 174.233C141.767 174.368 142.681 174.435 143.596 174.432ZM136.726 172.964C136.87 172.964 137.011 172.915 137.123 172.824C137.236 172.734 137.314 172.608 137.345 172.467C137.377 172.326 137.359 172.179 137.295 172.049C137.23 171.92 137.124 171.817 136.993 171.756C135.7 171.145 134.483 170.385 133.367 169.491C133.302 169.44 133.227 169.401 133.147 169.378C133.067 169.356 132.983 169.349 132.9 169.358C132.818 169.368 132.738 169.394 132.665 169.434C132.592 169.475 132.528 169.529 132.476 169.594C132.425 169.66 132.386 169.734 132.364 169.814C132.341 169.895 132.334 169.978 132.344 170.061C132.353 170.144 132.379 170.224 132.42 170.296C132.46 170.369 132.515 170.433 132.58 170.484C133.774 171.44 135.076 172.253 136.459 172.905C136.543 172.944 136.634 172.964 136.726 172.964ZM129.751 167.584C129.874 167.584 129.994 167.548 130.097 167.481C130.2 167.414 130.281 167.318 130.331 167.206C130.38 167.094 130.396 166.969 130.376 166.848C130.357 166.727 130.302 166.614 130.219 166.523C129.243 165.444 128.325 164.313 127.471 163.135C127.422 163.068 127.36 163.011 127.289 162.968C127.218 162.924 127.139 162.896 127.057 162.883C126.975 162.87 126.891 162.873 126.81 162.893C126.729 162.912 126.653 162.948 126.586 162.997C126.518 163.046 126.461 163.107 126.418 163.178C126.375 163.249 126.346 163.328 126.333 163.41C126.32 163.493 126.323 163.576 126.343 163.657C126.362 163.738 126.398 163.814 126.447 163.882C127.328 165.097 128.275 166.264 129.282 167.377C129.342 167.442 129.414 167.494 129.495 167.53C129.576 167.565 129.663 167.584 129.751 167.584Z" fill="#276D8A"/>
<path d="M70.4827 241.999C68.8289 198.705 83.7128 165.655 83.7128 165.655L92.7735 157.953L97.9339 164.251C98.9275 187.137 108.189 196.722 114.804 198.374C116.637 211.808 120.853 230.001 123.822 241.999H70.4827Z" fill="#154A7C"/>
<path d="M130.064 62.0727C162.433 77.7444 164.252 111.62 164.252 111.62L159.621 111.785L142.588 141.199L150.856 158.054C128.365 165.986 85.698 166.647 85.698 166.647L80.7367 106.497C80.7367 106.497 78.9589 96.4585 81.0674 94.1037C82.3539 92.6623 83.5157 91.1145 84.5404 89.4769L77.0984 89.5182C85.9047 71.5476 96.0244 63.0785 101.259 61.3642C105.162 60.6321 109.168 60.6391 113.068 61.385L130.064 62.0727Z" fill="#F9A620"/>
<path d="M35.3053 164.253H100.47C101.378 164.253 102.273 164.031 103.076 163.607C103.879 163.182 104.567 162.568 105.078 161.818C105.589 161.067 105.909 160.203 106.01 159.301C106.111 158.399 105.99 157.486 105.657 156.641L84.7457 103.584C84.3356 102.543 83.6214 101.65 82.6962 101.021C81.7711 100.391 80.6777 100.055 79.5584 100.055H11.2803C10.7172 100.055 10.1627 100.192 9.66498 100.455C9.16725 100.718 8.74141 101.099 8.4245 101.564C8.10759 102.029 7.90923 102.564 7.84669 103.123C7.78413 103.683 7.85928 104.248 8.06561 104.772L30.118 160.723C30.5281 161.764 31.2422 162.657 32.1674 163.287C33.0926 163.916 34.186 164.253 35.3053 164.253Z" fill="#114357"/>
<path d="M32.7691 164.253H97.9337C98.8423 164.253 99.7371 164.031 100.54 163.607C101.343 163.182 102.031 162.568 102.542 161.818C103.053 161.067 103.373 160.203 103.474 159.301C103.575 158.399 103.454 157.486 103.121 156.641L82.2096 103.584C81.7994 102.543 81.0853 101.65 80.1601 101.021C79.2349 100.391 78.1415 100.055 77.0222 100.055H8.74413C8.18108 100.055 7.62656 100.192 7.12884 100.455C6.63111 100.718 6.20527 101.099 5.88836 101.564C5.57146 102.029 5.37309 102.564 5.31055 103.123C5.248 103.683 5.32316 104.248 5.52948 104.772L27.5818 160.723C27.992 161.764 28.7061 162.657 29.6313 163.287C30.5565 163.916 31.6498 164.253 32.7691 164.253Z" fill="#2B6092"/>
<path d="M130.063 62.0734C130.063 61.7101 124.792 60.5295 122.883 57.1692C120.975 53.809 120.066 45.2721 120.793 33.8292C116.339 35.0098 114.794 31.4679 114.703 25.3832C114.612 19.2984 111.704 9.58095 99.8883 11.1248C95.4348 16.5739 93.0717 20.0249 93.4352 27.1087C93.7988 34.1924 93.0111 39.2176 93.8594 42.6082C94.6982 45.9608 98.3432 52.1743 106.705 51.9926C107.432 56.3519 108.006 60.6274 101.259 61.3648C108.078 72.3849 130.063 62.0734 130.063 62.0734Z" fill="#F4AA87"/>
<path d="M99.737 38.4811C99.7851 38.4811 99.8321 38.4661 99.8714 38.4383C99.9107 38.4104 99.9404 38.371 99.9563 38.3256C99.9722 38.2801 99.9735 38.2309 99.9602 38.1846C99.9468 38.1384 99.9194 38.0974 99.8817 38.0674C98.6788 37.1106 97.3405 35.9385 97.05 35.5298C97.3796 35.4877 97.7118 35.4682 98.0442 35.4713C98.8832 35.4553 99.8343 35.4372 100.396 35.1213C101.638 34.4232 100.44 29.1769 99.3434 26.7117C99.3183 26.6556 99.272 26.6117 99.2145 26.5896C99.157 26.5676 99.0932 26.5692 99.0369 26.5942C98.9807 26.6192 98.9367 26.6655 98.9145 26.7229C98.8924 26.7803 98.894 26.8441 98.9189 26.9003C100.194 29.7665 100.918 34.2956 100.169 34.7168C99.7085 34.9753 98.7808 34.9931 98.0353 35.0072C97.1002 35.0251 96.5357 35.0358 96.5357 35.4639C96.5357 35.9067 98.1979 37.3217 99.5925 38.4305C99.6335 38.4633 99.6845 38.4811 99.737 38.4811Z" fill="#2B1710"/>
<path d="M108.205 33.1942C107.426 33.1942 106.796 32.076 106.796 30.6967C106.796 29.3174 107.426 28.1992 108.205 28.1992C108.983 28.1992 109.613 29.3174 109.613 30.6967C109.613 32.076 108.983 33.1942 108.205 33.1942Z" fill="#2B1710"/>
<path d="M97.5404 33.495C96.7624 33.495 96.1317 32.3768 96.1317 30.9975C96.1317 29.6182 96.7624 28.5 97.5404 28.5C98.3185 28.5 98.9492 29.6182 98.9492 30.9975C98.9492 32.3768 98.3185 33.495 97.5404 33.495Z" fill="#2B1710"/>
<path d="M107.444 41.8766C102.049 40.2111 96.8527 40.2697 97.3006 41.6561C96.9871 45.0278 102.762 48.5868 107.444 41.8766Z" fill="#F05E3E"/>
<g style="mix-blend-mode:multiply">
<path d="M102.037 48.6475C101.357 48.652 100.681 48.5359 100.042 48.3046C100.019 48.2962 99.9979 48.2833 99.98 48.2667C99.9621 48.2501 99.9477 48.2302 99.9375 48.208C99.9273 48.1859 99.9216 48.1619 99.9207 48.1376C99.9198 48.1132 99.9237 48.0889 99.9323 48.0661C99.9408 48.0432 99.9537 48.0223 99.9703 48.0044C99.9869 47.9866 100.007 47.9722 100.029 47.9621C100.051 47.9519 100.075 47.9463 100.1 47.9454C100.124 47.9446 100.148 47.9485 100.171 47.9571C101.128 48.2891 102.156 48.3619 103.15 48.1681C103.174 48.1625 103.199 48.1616 103.223 48.1655C103.247 48.1693 103.27 48.1779 103.291 48.1906C103.311 48.2034 103.329 48.2201 103.344 48.2398C103.358 48.2596 103.368 48.2819 103.374 48.3056C103.38 48.3293 103.38 48.3539 103.377 48.3779C103.373 48.402 103.364 48.425 103.351 48.4457C103.339 48.4665 103.322 48.4845 103.302 48.4988C103.282 48.5131 103.26 48.5233 103.236 48.5289C102.842 48.6114 102.44 48.6511 102.037 48.6475Z" fill="#F4AA87"/>
</g>
<path d="M99.8889 11.1246C100.562 20.9939 114.359 22.4262 116.867 21.8891C119.375 21.352 112.832 6.80508 99.8889 11.1246Z" fill="#2B1710"/>
<path d="M108.569 40.6948C106.922 40.4616 105.768 39.0028 105.99 37.4366C106.212 35.8704 107.727 34.7898 109.373 35.023C111.02 35.2562 112.174 36.715 111.952 38.2812C111.73 39.8474 110.215 40.928 108.569 40.6948Z" fill="#F4AA87"/>
<path d="M120.803 38.8163C119.297 37.7747 118.921 35.7108 119.964 34.2062C121.006 32.7017 123.072 32.3264 124.577 33.368C126.083 34.4096 126.459 36.4736 125.416 37.9781C124.374 39.4826 122.308 39.8579 120.803 38.8163Z" fill="#F4AA87"/>
<g style="mix-blend-mode:multiply">
<path d="M122.268 33.7694C122.619 33.7046 122.981 33.7208 123.326 33.8168C123.67 33.9128 123.988 34.086 124.255 34.3233C124.269 34.3355 124.28 34.3502 124.288 34.3666C124.297 34.3831 124.301 34.401 124.302 34.4194C124.304 34.4377 124.301 34.4561 124.295 34.4734C124.289 34.4908 124.28 34.5068 124.268 34.5206C124.256 34.5344 124.241 34.5456 124.224 34.5536C124.208 34.5617 124.19 34.5664 124.172 34.5675C124.153 34.5687 124.135 34.5661 124.117 34.5601C124.1 34.5541 124.084 34.5448 124.07 34.5326C123.717 34.2194 123.268 34.0359 122.796 34.0125C122.325 33.989 121.859 34.1269 121.477 34.4034C121.506 34.3961 121.533 34.3839 121.564 34.3783C121.813 34.332 122.07 34.3535 122.308 34.4405C122.546 34.5275 122.757 34.6767 122.917 34.8727C123.078 35.0687 123.183 35.3042 123.221 35.5546C123.259 35.805 123.23 36.0611 123.135 36.2961C123.041 36.5311 122.885 36.7364 122.683 36.8905C122.482 37.0447 122.243 37.142 121.992 37.1723C121.74 37.2026 121.485 37.1648 121.253 37.0629C121.021 36.9609 120.82 36.7986 120.672 36.5928C120.747 36.8933 120.887 37.1735 121.084 37.413C121.28 37.6525 121.527 37.8453 121.808 37.9774C121.841 37.9932 121.867 38.0216 121.879 38.0563C121.892 38.0911 121.89 38.1294 121.874 38.1628C121.859 38.1962 121.83 38.2221 121.796 38.2347C121.761 38.2473 121.723 38.2457 121.689 38.2302C121.235 38.018 120.861 37.6671 120.62 37.2282C120.378 36.7893 120.283 36.2851 120.348 35.7886C120.412 35.2921 120.633 34.8288 120.978 34.4659C121.323 34.1029 121.775 33.859 122.268 33.7694ZM122.02 36.886C122.241 36.8458 122.445 36.7411 122.607 36.585C122.768 36.429 122.88 36.2286 122.927 36.0092C122.974 35.7898 122.956 35.5613 122.873 35.3525C122.791 35.1438 122.648 34.9642 122.463 34.8364C122.279 34.7087 122.06 34.6385 121.836 34.6348C121.611 34.6311 121.39 34.694 121.202 34.8156C121.013 34.9372 120.864 35.1121 120.775 35.318C120.686 35.5239 120.659 35.7517 120.7 35.9725C120.754 36.2684 120.923 36.5308 121.171 36.7021C121.418 36.8733 121.724 36.9395 122.02 36.886Z" fill="#F4AA87"/>
</g>
<path d="M107.439 51.6938C116.318 48.6787 118.929 39.4593 119.045 39.6333C117.652 54.535 108.89 59.5216 107.439 51.6938Z" fill="#F4AA87"/>
<path d="M106.532 25.9393C107.968 25.8925 109.394 26.1837 110.697 26.7895C110.798 26.8385 110.912 26.8519 111.022 26.8275C111.132 26.8031 111.23 26.7424 111.3 26.6552C111.371 26.5681 111.41 26.4596 111.411 26.3475C111.412 26.2353 111.375 26.1262 111.306 26.0377C109.032 22.9379 105.783 23.0685 106.018 25.4834C106.031 25.6097 106.091 25.7265 106.186 25.8108C106.281 25.8951 106.405 25.9409 106.532 25.9393Z" fill="#2B1710"/>
<path d="M97.6147 25.8946C96.4584 25.8948 95.3183 26.1659 94.2859 26.6862C94.2058 26.7283 94.1136 26.7409 94.0252 26.7219C93.9368 26.7028 93.8579 26.6533 93.8023 26.582C93.7468 26.5107 93.7181 26.4221 93.7214 26.3318C93.7246 26.2415 93.7595 26.1552 93.82 26.088C95.6995 23.5083 98.2773 23.5377 98.0337 25.511C98.0206 25.6141 97.9712 25.7093 97.8945 25.7795C97.8178 25.8497 97.7187 25.8905 97.6147 25.8946Z" fill="#2B1710"/>
<path d="M101.35 43.1695C103.951 43.1695 106.826 42.5895 108.144 41.8162C108.169 41.8014 108.191 41.7818 108.209 41.7585C108.227 41.7352 108.239 41.7087 108.247 41.6804C108.262 41.6234 108.253 41.5628 108.223 41.512C108.193 41.4612 108.145 41.4243 108.087 41.4095C108.03 41.3947 107.97 41.4031 107.919 41.433C106.149 42.4718 101.278 43.1373 98.5307 42.4212C97.7333 42.2132 97.1922 41.8989 96.9659 41.5124C96.9511 41.4872 96.9316 41.4652 96.9083 41.4475C96.885 41.4299 96.8585 41.417 96.8302 41.4096C96.802 41.4022 96.7725 41.4005 96.7436 41.4044C96.7146 41.4084 96.6868 41.418 96.6615 41.4328C96.6363 41.4475 96.6143 41.4671 96.5966 41.4903C96.5789 41.5136 96.5661 41.5401 96.5586 41.5683C96.5512 41.5966 96.5495 41.626 96.5535 41.6549C96.5574 41.6838 96.5671 41.7117 96.5818 41.7369C96.8732 42.2345 97.4911 42.6096 98.4184 42.8514C99.3786 43.0781 100.363 43.1849 101.35 43.1695Z" fill="#2B1710"/>
<path d="M159.621 111.785H134.38C122.723 146.082 100.92 169.809 68.3231 149.533C65.7327 141.984 57.0977 136.267 55.4787 134.003C53.8596 131.738 51.9168 134.542 54.8311 139.287C57.7453 144.033 59.9041 145.65 55.9104 145.435C51.9168 145.219 31.6247 128.071 32.5961 138.532C29.6819 141.876 33.2438 146.621 33.2438 146.621C32.2723 148.131 37.6692 154.818 37.6692 154.818C34.7549 154.279 35.7263 156.112 40.9073 159.563C46.0882 163.015 55.3707 165.064 59.3644 164.848C68.1072 168.731 97.9405 189.17 132.006 167.005C159.853 148.886 159.621 111.785 159.621 111.785Z" fill="#F4AA87"/>
<path d="M116.351 162.525C122.636 157.778 130.61 157.737 134.162 162.433C134.664 163.104 135.058 163.848 135.332 164.64C134.273 165.458 133.168 166.25 132.006 167.006C124.359 171.982 116.927 174.805 109.897 176.156C109.038 171.699 111.448 166.229 116.351 162.525Z" fill="#F4AA87"/>
<g style="mix-blend-mode:multiply">
<path d="M47.8253 150.067C47.8962 150.067 47.965 150.044 48.0208 150C48.0767 149.956 48.1162 149.895 48.1333 149.827C48.1503 149.758 48.1438 149.685 48.1148 149.621C48.0858 149.556 48.036 149.503 47.9733 149.47C46.459 148.674 37.3804 143.294 33.6226 138.645C33.5697 138.58 33.4931 138.538 33.4095 138.529C33.3258 138.52 33.2421 138.545 33.1767 138.598C33.1112 138.65 33.0695 138.727 33.0606 138.811C33.0517 138.894 33.0763 138.978 33.1292 139.043C36.9545 143.775 46.1458 149.225 47.678 150.031C47.7234 150.055 47.774 150.067 47.8253 150.067Z" fill="#F4AA87"/>
</g>
<g style="mix-blend-mode:multiply">
<path d="M44.3535 155.645C44.4228 155.645 44.4902 155.622 44.5454 155.58C44.6007 155.538 44.6406 155.48 44.6593 155.413C44.6779 155.346 44.6741 155.275 44.6485 155.211C44.6229 155.147 44.5769 155.092 44.5176 155.057C44.4526 155.017 37.9509 151.063 34.2491 146.212C34.2238 146.179 34.1923 146.152 34.1563 146.131C34.1203 146.11 34.0806 146.096 34.0394 146.091C33.9981 146.085 33.9562 146.088 33.9159 146.098C33.8757 146.109 33.838 146.128 33.8049 146.153C33.7718 146.178 33.744 146.21 33.7231 146.245C33.7022 146.281 33.6886 146.321 33.683 146.362C33.6775 146.404 33.6801 146.445 33.6908 146.486C33.7014 146.526 33.7199 146.564 33.7451 146.597C37.5209 151.545 44.1238 155.559 44.1901 155.599C44.2393 155.629 44.2959 155.645 44.3535 155.645Z" fill="#F4AA87"/>
</g>
<g style="mix-blend-mode:multiply">
<path d="M43.1125 158.558C43.1829 158.558 43.2513 158.535 43.3069 158.492C43.3626 158.448 43.4023 158.388 43.4198 158.32C43.4372 158.252 43.4315 158.18 43.4035 158.115C43.3755 158.051 43.3268 157.997 43.2651 157.963C43.2326 157.946 40.0037 156.174 38.8098 154.981C38.7503 154.922 38.6698 154.889 38.5858 154.889C38.5019 154.889 38.4214 154.922 38.3621 154.981C38.3027 155.041 38.2693 155.121 38.2692 155.205C38.2691 155.289 38.3024 155.369 38.3616 155.429C39.6196 156.686 42.8249 158.445 42.9605 158.519C43.0071 158.545 43.0593 158.558 43.1125 158.558Z" fill="#F4AA87"/>
</g>
<path d="M47.8779 131.781H58.6172V130.097C58.6172 128.834 58.1152 127.623 57.2216 126.73C56.3281 125.838 55.1161 125.336 53.8524 125.336H43.1131V127.02C43.1131 128.282 43.6151 129.493 44.5087 130.386C45.4023 131.279 46.6142 131.781 47.8779 131.781Z" fill="#114357"/>
<g style="mix-blend-mode:multiply">
<path d="M86.3582 87.6475C86.4135 87.6475 86.4679 87.6331 86.5159 87.6057C86.5639 87.5782 86.6038 87.5387 86.6319 87.4911C89.3682 82.8537 92.3978 78.3955 95.7021 74.1435C95.7546 74.0779 95.7788 73.9941 95.7695 73.9106C95.7602 73.8271 95.7181 73.7507 95.6524 73.6982C95.5867 73.6458 95.5029 73.6215 95.4193 73.6309C95.3358 73.6402 95.2593 73.6823 95.2068 73.7479C91.8838 78.0237 88.8371 82.507 86.0852 87.1704C86.057 87.2185 86.042 87.2732 86.0417 87.3289C86.0413 87.3847 86.0558 87.4395 86.0835 87.4879C86.1112 87.5363 86.1512 87.5766 86.1994 87.6046C86.2476 87.6326 86.3024 87.6474 86.3582 87.6475Z" fill="#BFBFBF"/>
</g>
<g style="mix-blend-mode:multiply">
<path d="M129.191 101.032C129.233 101.032 129.274 101.024 129.313 101.008C129.351 100.992 129.386 100.969 129.415 100.939C129.445 100.91 129.468 100.875 129.484 100.837C129.5 100.798 129.508 100.757 129.508 100.715C129.508 82.2938 135.176 75.2414 139.931 72.569C140.004 72.5277 140.058 72.4591 140.08 72.3783C140.103 72.2975 140.092 72.2111 140.051 72.138C140.01 72.0649 139.941 72.0111 139.861 71.9884C139.78 71.9657 139.693 71.9759 139.62 72.0168C134.718 74.7721 128.874 81.9877 128.874 100.715C128.874 100.757 128.883 100.798 128.898 100.837C128.914 100.875 128.938 100.91 128.967 100.939C128.997 100.969 129.032 100.992 129.07 101.008C129.108 101.024 129.15 101.032 129.191 101.032Z" fill="#BFBFBF"/>
</g>
<path d="M11.4358 130.102C3.37689 127.375 -4.35217 111.813 5.49617 104.938C6.08982 105.368 7.94945 109.396 7.94945 109.396C7.94945 109.396 24.8222 105.874 27.0818 110.698C30.427 112.58 28.5336 116.386 28.5336 116.386C29.7232 119.24 23.139 123.267 23.139 123.267C23.139 123.267 27.2235 121.086 27.7329 123.229C28.2423 125.373 16.9902 130.688 11.4358 130.102Z" fill="#F4AA87"/>
<g style="mix-blend-mode:multiply">
<path d="M22.3664 113.802C18.6681 114.944 12.9033 116.31 8.50295 115.458C8.45415 115.448 8.41111 115.42 8.38329 115.379C8.35547 115.337 8.34517 115.287 8.35463 115.238C8.36409 115.189 8.39254 115.146 8.43374 115.119C8.47494 115.091 8.52551 115.081 8.57431 115.09C15.4615 116.424 25.8031 112.213 25.9067 112.171C25.9295 112.161 25.9539 112.156 25.9785 112.156C26.0032 112.156 26.0276 112.161 26.0504 112.171C26.0731 112.18 26.0938 112.194 26.1112 112.211C26.1287 112.229 26.1425 112.249 26.1519 112.272C26.1613 112.295 26.1661 112.319 26.166 112.344C26.166 112.369 26.161 112.393 26.1515 112.416C26.142 112.438 26.1282 112.459 26.1107 112.476C26.0932 112.494 26.0724 112.507 26.0496 112.517C26.0107 112.533 24.5481 113.128 22.3664 113.802Z" fill="#F4AA87"/>
</g>
<g style="mix-blend-mode:multiply">
<path d="M15.6592 122.706C15.6227 122.717 15.6023 122.723 15.599 122.724C15.5513 122.738 15.5 122.733 15.4563 122.709C15.4126 122.685 15.3801 122.645 15.366 122.598C15.3577 122.574 15.3545 122.549 15.3565 122.524C15.3585 122.5 15.3657 122.475 15.3776 122.453C15.3895 122.431 15.4058 122.412 15.4256 122.397C15.4454 122.382 15.4681 122.371 15.4924 122.365C15.5555 122.347 21.8636 120.449 27.7498 116.518C27.7911 116.49 27.8417 116.48 27.8903 116.49C27.939 116.5 27.9818 116.528 28.0094 116.57C28.037 116.611 28.0471 116.661 28.0375 116.71C28.0279 116.759 27.9993 116.801 27.9581 116.829C22.3322 120.586 16.3244 122.5 15.6592 122.706Z" fill="#F4AA87"/>
</g>
<g style="mix-blend-mode:multiply">
<path d="M19.2753 125.212C18.9368 125.316 18.7309 125.363 18.7066 125.369C18.6581 125.379 18.6074 125.37 18.5656 125.344C18.5237 125.317 18.4941 125.275 18.4833 125.227C18.4725 125.178 18.4813 125.128 18.5078 125.086C18.5343 125.044 18.5764 125.014 18.6248 125.003C19.9666 124.647 21.2493 124.098 22.4326 123.373C22.4751 123.347 22.5261 123.339 22.5743 123.351C22.6224 123.363 22.664 123.394 22.6897 123.436C22.7154 123.478 22.7232 123.529 22.7115 123.577C22.6997 123.626 22.6693 123.667 22.6269 123.693C21.5746 124.332 20.4494 124.842 19.2753 125.212Z" fill="#F4AA87"/>
</g>
<path d="M114.447 24.0901C116.481 24.0774 118.504 23.8021 120.467 23.2709C120.507 23.2603 120.545 23.2419 120.578 23.2167C120.611 23.1914 120.639 23.16 120.66 23.124C120.681 23.088 120.695 23.0482 120.7 23.007C120.706 22.9657 120.703 22.9238 120.693 22.8835C120.682 22.8433 120.663 22.8055 120.638 22.7724C120.613 22.7393 120.581 22.7115 120.545 22.6906C120.509 22.6697 120.469 22.6561 120.428 22.6506C120.387 22.6451 120.345 22.6478 120.305 22.6585C113.734 24.3966 107.735 23.2605 104.26 19.6201C102.078 17.3353 101.33 14.4331 102.207 11.6581C102.232 11.578 102.225 11.4912 102.186 11.4167C102.147 11.3422 102.081 11.2861 102 11.2608C101.92 11.2355 101.833 11.243 101.759 11.2818C101.684 11.3205 101.628 11.3872 101.603 11.4673C100.654 14.4693 101.455 17.6004 103.801 20.0573C106.326 22.7022 110.101 24.0901 114.447 24.0901Z" fill="#2B1710"/>
</g>
<defs>
<clipPath id="clip0_183_3215">
<rect width="173" height="242" fill="white" transform="matrix(-1 0 0 1 173 0)"/>
</clipPath>
</defs>
</svg>
