<svg width="36" height="36" viewBox="0 0 36 36" fill="none" xmlns="http://www.w3.org/2000/svg">
<path d="M28.9943 13.406L23.0509 12.5424L20.3928 7.1567C19.3662 5.07637 16.3975 5.077 15.3713 7.15663L12.7132 12.5423L6.76979 13.406C4.47387 13.7396 3.55742 16.563 5.21806 18.1818L9.5188 22.374L8.50355 28.2933C8.11142 30.5799 10.5132 32.3239 12.5661 31.245L17.8821 28.4501L23.1982 31.245C25.2482 32.3227 27.6528 30.5796 27.2607 28.2933L26.2455 22.3739L30.5463 18.1818C32.2072 16.5623 31.2892 13.7395 28.9943 13.406ZM28.8708 16.4633L24.1183 21.0957C23.8355 21.3714 23.7065 21.7686 23.7732 22.1579L24.8952 28.6991C24.9515 29.0276 24.6097 29.2757 24.3148 29.1208L18.4404 26.0324C18.0909 25.8487 17.6731 25.8487 17.3236 26.0324L11.4492 29.1208C11.1542 29.2758 10.8125 29.0275 10.8689 28.6991L11.9908 22.1579C12.0575 21.7686 11.9285 21.3714 11.6457 21.0957L6.89318 16.4633C6.65447 16.2306 6.78504 15.829 7.11488 15.781L13.6826 14.8266C14.0734 14.7698 14.4113 14.5244 14.5861 14.1702L17.5234 8.21877C17.6708 7.92009 18.0932 7.91988 18.2407 8.21884L21.1779 14.1702C21.3527 14.5244 21.6907 14.7699 22.0815 14.8266L28.6492 15.781C28.979 15.829 29.1095 16.2307 28.8708 16.4633Z" fill="#1C7C54"/>
<path d="M9.02925 6.91373L7.91731 5.38328C7.61539 4.96794 7.034 4.87577 6.61866 5.17768C6.20327 5.47949 6.11115 6.06093 6.41301 6.47633L7.52496 8.00672C7.82698 8.42228 8.40837 8.51407 8.8236 8.21232C9.23899 7.91057 9.33112 7.32912 9.02925 6.91373Z" fill="#1C7C54"/>
<path d="M5.13713 24.611C5.00083 24.1913 4.55 23.9614 4.13017 24.098L2.55237 24.6107C2.13264 24.7471 1.90296 25.1978 2.03932 25.6176C2.1759 26.0381 2.62748 26.2669 3.04628 26.1307L4.62408 25.618C5.04386 25.4816 5.27353 25.0308 5.13713 24.611Z" fill="#1C7C54"/>
<path d="M28.9416 5.17764C28.5263 4.87585 27.9449 4.96786 27.643 5.38323L26.5312 6.91353C26.2293 7.3289 26.3214 7.91036 26.7368 8.21209C27.1523 8.51399 27.7337 8.42171 28.0354 8.00651L29.1472 6.47621C29.449 6.06084 29.357 5.47938 28.9416 5.17764Z" fill="#1C7C54"/>
<path d="M34.1928 24.5941L32.6624 24.0968C32.2552 23.9643 31.8179 24.1874 31.6856 24.5945C31.5533 25.0016 31.7761 25.439 32.1833 25.5713L33.7138 26.0686C34.12 26.2007 34.558 25.9787 34.6905 25.5709C34.8228 25.1637 34.6 24.7264 34.1928 24.5941Z" fill="#1C7C54"/>
</svg>
