<svg width="37" height="37" viewBox="0 0 37 37" fill="none" xmlns="http://www.w3.org/2000/svg">
<path d="M32.375 18.4998C32.375 26.1627 26.163 32.3748 18.5 32.3748C10.837 32.3748 4.625 26.1627 4.625 18.4998C4.625 10.8368 10.837 4.62476 18.5 4.62476M26.2083 18.4998C26.2083 22.757 22.7572 26.2081 18.5 26.2081C14.2428 26.2081 10.7917 22.757 10.7917 18.4998C10.7917 14.2426 14.2428 10.7914 18.5 10.7914M22.7517 14.4168L28.8552 15.0579L32.1637 10.4259L28.1934 9.10252L26.87 5.13229L22.2381 8.44082L22.7517 14.4168ZM22.7517 14.4168L18.5 18.4996" stroke="#1C7C54" stroke-width="1.72334" stroke-linecap="round" stroke-linejoin="round"/>
</svg>
