<svg width="37" height="37" viewBox="0 0 37 37" fill="none" xmlns="http://www.w3.org/2000/svg">
<path d="M4.7983 13.8753H32.2013M10.8665 4.70308L18.4998 13.8753L26.146 4.70951M31.8908 13.1492L26.5743 5.17446C26.4404 4.97366 26.3735 4.87327 26.285 4.80059C26.2067 4.73624 26.1165 4.68797 26.0196 4.65852C25.9101 4.62526 25.7894 4.62526 25.5481 4.62526H11.4515C11.2102 4.62526 11.0895 4.62526 10.98 4.65852C10.883 4.68797 10.7928 4.73624 10.7145 4.80059C10.6261 4.87327 10.5592 4.97366 10.4253 5.17446L5.10882 13.1492C4.93455 13.4106 4.84742 13.5413 4.81619 13.6819C4.78861 13.8061 4.79219 13.9352 4.82662 14.0577C4.8656 14.1963 4.95985 14.322 5.14835 14.5733L17.5131 31.0597C17.8478 31.506 18.0152 31.7291 18.2204 31.8089C18.4001 31.8788 18.5995 31.8788 18.7792 31.8089C18.9844 31.7291 19.1517 31.506 19.4865 31.0597L31.8512 14.5733C32.0397 14.322 32.134 14.1963 32.173 14.0577C32.2074 13.9352 32.211 13.8061 32.1834 13.6819C32.1522 13.5413 32.065 13.4106 31.8908 13.1492Z" stroke="#1C7C54" stroke-width="2" stroke-linecap="round" stroke-linejoin="round"/>
</svg>
