<svg width="32" height="32" viewBox="0 0 32 32" fill="none" xmlns="http://www.w3.org/2000/svg">
<g clip-path="url(#clip0_166_11906)">
<path d="M15.999 3.74927C15.4813 3.74927 15.0615 4.16902 15.0615 4.68677C15.0615 5.20452 15.4813 5.62427 15.999 5.62427C19.1011 5.62427 21.625 8.14764 21.625 11.2493C21.625 11.767 22.0447 12.1868 22.5625 12.1868C23.0802 12.1868 23.5 11.767 23.5 11.2493C23.5 7.11377 20.1351 3.74927 15.999 3.74927Z" fill="#1C7C54"/>
<path d="M13.5838 0.251869C9.34819 1.13693 5.91381 4.53843 5.01013 8.80037C4.24706 12.3992 5.18738 16.0124 7.58994 18.7133C8.76438 20.0335 9.43788 21.7762 9.43788 23.4994V25.3744C9.43788 26.6219 10.2546 27.6817 11.3812 28.0487C11.7517 30.2378 13.6517 31.9993 16.0004 31.9993C18.3484 31.9993 20.2489 30.2384 20.6196 28.0487C21.7462 27.6817 22.5629 26.6219 22.5629 25.3743V23.4993C22.5629 21.7727 23.2386 20.051 24.4655 18.6512C26.2614 16.6025 27.2504 13.9737 27.2504 11.2494C27.2504 4.15156 20.7536 -1.24601 13.5838 0.251869ZM16.0004 30.1244C14.7952 30.1244 13.7386 29.2951 13.3484 28.1806H18.6522C18.2621 29.2951 17.2055 30.1244 16.0004 30.1244ZM20.6879 25.3744C20.6879 25.8913 20.2673 26.3119 19.7504 26.3119H12.2504C11.7334 26.3119 11.3129 25.8913 11.3129 25.3744V24.4369H20.6879V25.3744ZM23.0555 17.4154C21.748 18.9071 20.9436 20.7059 20.7394 22.5619H11.2615C11.0576 20.7049 10.2553 18.8884 8.991 17.4671C6.98863 15.2161 6.20619 12.1989 6.84438 9.18931C7.58931 5.67593 10.4518 2.82187 13.9674 2.08731C19.9689 0.833119 25.3754 5.34012 25.3754 11.2494C25.3754 13.5189 24.5515 15.7087 23.0555 17.4154Z" fill="#1C7C54"/>
<path d="M2.8125 11.2493H0.9375C0.41975 11.2493 0 11.669 0 12.1868C0 12.7045 0.41975 13.1243 0.9375 13.1243H2.8125C3.33025 13.1243 3.75 12.7045 3.75 12.1868C3.75 11.669 3.33025 11.2493 2.8125 11.2493Z" fill="#1C7C54"/>
<path d="M3.20075 6.56183L1.87494 5.23602C1.50888 4.86989 0.915255 4.86989 0.54913 5.23602C0.183005 5.60214 0.183005 6.19571 0.54913 6.56183L1.87494 7.88764C2.241 8.25377 2.83463 8.25383 3.20075 7.88764C3.56688 7.52152 3.56688 6.92796 3.20075 6.56183Z" fill="#1C7C54"/>
<path d="M3.20075 16.486C2.83463 16.1199 2.241 16.1199 1.87494 16.486L0.54913 17.8118C0.183005 18.178 0.183005 18.7715 0.54913 19.1376C0.915192 19.5038 1.50882 19.5038 1.87494 19.1376L3.20075 17.8118C3.56688 17.4457 3.56688 16.8521 3.20075 16.486Z" fill="#1C7C54"/>
<path d="M31.0625 11.2493H29.1875C28.6697 11.2493 28.25 11.669 28.25 12.1868C28.25 12.7045 28.6697 13.1243 29.1875 13.1243H31.0625C31.5803 13.1243 32 12.7045 32 12.1868C32 11.669 31.5803 11.2493 31.0625 11.2493Z" fill="#1C7C54"/>
<path d="M31.4508 5.23602C31.0847 4.86989 30.4911 4.86989 30.1249 5.23602L28.7991 6.56183C28.433 6.92796 28.433 7.52152 28.7991 7.88764C29.1652 8.25371 29.7588 8.25377 30.1249 7.88764L31.4508 6.56183C31.8169 6.19571 31.8169 5.60214 31.4508 5.23602Z" fill="#1C7C54"/>
<path d="M31.4508 17.8118L30.1249 16.486C29.7589 16.1199 29.1653 16.1199 28.7991 16.486C28.433 16.8521 28.433 17.4457 28.7991 17.8118L30.1249 19.1376C30.491 19.5037 31.0846 19.5038 31.4508 19.1376C31.8169 18.7715 31.8169 18.178 31.4508 17.8118Z" fill="#1C7C54"/>
</g>
<defs>
<clipPath id="clip0_166_11906">
<rect width="32" height="32" fill="white"/>
</clipPath>
</defs>
</svg>
