<svg width="33" height="33" viewBox="0 0 33 33" fill="none" xmlns="http://www.w3.org/2000/svg">
<g clip-path="url(#clip0_166_11890)">
<path d="M32.9613 2.46352C32.8899 1.15267 31.8473 0.110271 30.5365 0.0387284C27.8915 -0.105776 22.7156 0.0347969 17.7664 2.59468C15.2434 3.89973 12.575 6.11234 10.4455 8.6652C10.4193 8.69665 10.3938 8.7283 10.3678 8.75982L5.53506 9.13313C4.73958 9.19462 4.03104 9.61156 3.59109 10.277L0.294051 15.2638C-0.0396226 15.7685 -0.0926675 16.4001 0.152061 16.9533C0.396854 17.5066 0.899846 17.8921 1.49765 17.9847L5.56922 18.6153C5.55484 18.6945 5.54041 18.7736 5.52719 18.8527C5.39165 19.6635 5.66029 20.4972 6.24591 21.0827L11.9173 26.7542C12.4028 27.2397 13.0589 27.5074 13.7311 27.5074C13.8696 27.5074 14.0088 27.496 14.1473 27.4728C14.2265 27.4596 14.3056 27.4452 14.3847 27.4308L15.0153 31.5024C15.108 32.1002 15.4935 32.6033 16.0467 32.848C16.2768 32.9498 16.5204 33.0001 16.7629 33.0001C17.1034 33.0001 17.4415 32.9009 17.7362 32.7061L22.723 29.409C23.3885 28.969 23.8054 28.2604 23.8667 27.465L24.2401 22.6324C24.2716 22.6063 24.3033 22.5808 24.3347 22.5546C26.8877 20.4251 29.1003 17.7568 30.4053 15.2337C32.9653 10.2843 33.1057 5.10835 32.9613 2.46352ZM21.6567 27.796L16.8864 30.9499L16.2718 26.9818C18.2879 26.389 20.2823 25.4396 22.1823 24.1678L21.9391 27.316C21.9239 27.5124 21.8209 27.6874 21.6567 27.796ZM13.2845 25.3869L7.61309 19.7155C7.46839 19.5707 7.40149 19.3674 7.4343 19.1715C7.60291 18.1633 7.86491 17.2035 8.18924 16.2993L16.6989 24.809C15.6129 25.1979 14.6403 25.43 13.8285 25.5657C13.6323 25.5983 13.4292 25.5316 13.2845 25.3869ZM5.68401 11.061L8.83216 10.8178C7.56024 12.7178 6.61084 14.7122 6.01807 16.7283L2.05008 16.1137L5.20403 11.3434C5.31269 11.1791 5.48768 11.0761 5.68401 11.061ZM23.0963 21.0697C21.5344 22.3724 20.0183 23.3148 18.6208 23.9966L9.00309 14.3788C9.89628 12.5546 10.9864 11.0355 11.9304 9.90379C13.901 7.54127 16.352 5.50319 18.6548 4.3121C23.1971 1.96259 27.9828 1.83607 30.4312 1.96936C30.7553 1.98702 31.0131 2.24477 31.0307 2.5689C31.1642 5.01735 31.0374 9.80299 28.6879 14.3453C27.4969 16.6481 25.4588 19.099 23.0963 21.0697Z" fill="#1C7C54"/>
<path d="M22.6045 15.2268C23.8421 15.2267 25.0803 14.7555 26.0225 13.8133C26.9355 12.9003 27.4383 11.6864 27.4383 10.3953C27.4383 9.10416 26.9355 7.89025 26.0225 6.97727C24.1378 5.09247 21.0711 5.0926 19.1865 6.97727C18.2734 7.89025 17.7706 9.10416 17.7706 10.3953C17.7706 11.6864 18.2735 12.9003 19.1865 13.8133C20.1289 14.7557 21.3664 15.227 22.6045 15.2268ZM20.5536 8.34445C21.119 7.77901 21.8617 7.49632 22.6044 7.49632C23.3471 7.49632 24.0898 7.77901 24.6552 8.34445C25.203 8.89224 25.5046 9.62056 25.5046 10.3952C25.5046 11.1699 25.203 11.8983 24.6552 12.4461C23.5244 13.5769 21.6844 13.5768 20.5535 12.4461C20.0057 11.8983 19.704 11.17 19.704 10.3953C19.704 9.62063 20.0058 8.89224 20.5536 8.34445Z" fill="#1C7C54"/>
<path d="M0.986296 27.1956C1.23373 27.1956 1.48117 27.1012 1.66989 26.9124L4.82635 23.7559C5.20391 23.3783 5.20391 22.7662 4.82635 22.3886C4.44885 22.0111 3.83667 22.0111 3.4591 22.3886L0.302706 25.5451C-0.0748603 25.9227 -0.0748603 26.5348 0.302706 26.9124C0.491425 27.1011 0.73886 27.1956 0.986296 27.1956Z" fill="#1C7C54"/>
<path d="M7.71894 25.281C7.34144 24.9034 6.72926 24.9034 6.35169 25.281L0.283175 31.3496C-0.0943916 31.7271 -0.0943916 32.3392 0.283175 32.7168C0.471958 32.9056 0.719329 32.9999 0.966765 32.9999C1.2142 32.9999 1.46164 32.9056 1.65035 32.7167L7.71887 26.6482C8.09651 26.2707 8.09651 25.6585 7.71894 25.281Z" fill="#1C7C54"/>
<path d="M9.2442 28.1738L6.08774 31.3303C5.71017 31.7078 5.71017 32.3199 6.08774 32.6975C6.27652 32.8863 6.52396 32.9807 6.77133 32.9807C7.0187 32.9807 7.2662 32.8864 7.45492 32.6975L10.6114 29.541C10.989 29.1635 10.989 28.5514 10.6114 28.1738C10.2339 27.7962 9.62171 27.7962 9.2442 28.1738Z" fill="#1C7C54"/>
</g>
<defs>
<clipPath id="clip0_166_11890">
<rect width="33" height="33" fill="white"/>
</clipPath>
</defs>
</svg>
