<svg width="25" height="25" viewBox="0 0 25 25" fill="none" xmlns="http://www.w3.org/2000/svg">
<circle cx="12.5" cy="12.5" r="12.5" fill="#1C7C54"/>
<g clip-path="url(#clip0_183_4073)">
<path d="M12.5 5C11.0088 5.00198 9.57917 5.59525 8.52471 6.64971C7.47025 7.70417 6.87698 9.13376 6.875 10.625C6.875 14.6633 12.1156 19.7211 12.3383 19.9344C12.3816 19.9765 12.4396 20 12.5 20C12.5604 20 12.6184 19.9765 12.6617 19.9344C12.8844 19.7211 18.125 14.6633 18.125 10.625C18.123 9.13376 17.5298 7.70417 16.4753 6.64971C15.4208 5.59525 13.9912 5.00198 12.5 5ZM12.5 13.2031C11.9901 13.2031 11.4916 13.0519 11.0677 12.7686C10.6437 12.4853 10.3133 12.0827 10.1181 11.6116C9.92299 11.1405 9.87194 10.6221 9.97141 10.122C10.0709 9.62193 10.3164 9.16255 10.677 8.80199C11.0375 8.44143 11.4969 8.19589 11.997 8.09641C12.4971 7.99694 13.0155 8.04799 13.4866 8.24312C13.9577 8.43826 14.3603 8.7687 14.6436 9.19267C14.9269 9.61664 15.0781 10.1151 15.0781 10.625C15.0777 11.3086 14.806 11.9642 14.3226 12.4476C13.8392 12.931 13.1836 13.2027 12.5 13.2031Z" fill="white"/>
</g>
<defs>
<clipPath id="clip0_183_4073">
<rect width="15" height="15" fill="white" transform="translate(5 5)"/>
</clipPath>
</defs>
</svg>
