<svg width="23" height="23" viewBox="0 0 23 23" fill="none" xmlns="http://www.w3.org/2000/svg">
<rect width="21.7843" height="21.7818" transform="translate(0.662109 0.447266)" fill="transparent"/>
<g clip-path="url(#clip0_2003_138)">
<path d="M6.81112 5.25781C5.82835 5.25781 5.18579 5.90308 5.18579 6.75119C5.18579 7.58057 5.8092 8.24423 6.77341 8.24423H6.79206C7.79405 8.24423 8.41763 7.58057 8.41763 6.75119C8.39889 5.90308 7.79405 5.25781 6.81112 5.25781Z" fill="white"/>
<path d="M5.35474 9.42188H8.22778V18.0646H5.35474V9.42188Z" fill="white"/>
<path d="M15.2807 9.2207C13.7308 9.2207 12.6915 10.6769 12.6915 10.6769V9.42355H9.81836V18.0663H12.6913V13.2398C12.6913 12.9815 12.7101 12.7235 12.786 12.5387C12.9937 12.0228 13.4663 11.4882 14.26 11.4882C15.2997 11.4882 15.7155 12.2808 15.7155 13.4427V18.0663H18.5883V13.1107C18.5883 10.456 17.1708 9.2207 15.2807 9.2207Z" fill="white"/>
</g>
<defs>
<clipPath id="clip0_2003_138">
<rect width="14.2959" height="14.2943" fill="white" transform="translate(4.74585 4.53516)"/>
</clipPath>
</defs>
</svg>
