<svg width="23" height="23" viewBox="0 0 23 23" fill="none" xmlns="http://www.w3.org/2000/svg">
<rect width="21.7843" height="21.7818" transform="translate(0.769531 0.447266)" fill="transparent"/>
<g clip-path="url(#clip0_2003_133)">
<path d="M19.0316 8.01035C18.8625 7.38157 18.3667 6.88591 17.7379 6.7166C16.5893 6.40234 11.9945 6.40234 11.9945 6.40234C11.9945 6.40234 7.39994 6.40234 6.25127 6.70468C5.63461 6.87382 5.12671 7.38166 4.95756 8.01035C4.65527 9.1588 4.65527 11.5405 4.65527 11.5405C4.65527 11.5405 4.65527 13.9343 4.95756 15.0707C5.12689 15.6994 5.62251 16.1951 6.25136 16.3644C7.41203 16.6787 11.9947 16.6787 11.9947 16.6787C11.9947 16.6787 16.5893 16.6787 17.7379 16.3764C18.3668 16.2072 18.8625 15.7115 19.0318 15.0828C19.334 13.9343 19.334 11.5526 19.334 11.5526C19.334 11.5526 19.3461 9.1588 19.0316 8.01035ZM10.5316 13.7409V9.3402L14.3524 11.5405L10.5316 13.7409Z" fill="white"/>
</g>
<defs>
<clipPath id="clip0_2003_133">
<rect width="15.6574" height="15.6557" fill="white" transform="translate(4.17285 3.84961)"/>
</clipPath>
</defs>
</svg>
